<?xml version="1.0" encoding="utf-8"?>
<!-- Generator: Adobe Illustrator 16.0.0, SVG Export Plug-In . SVG Version: 6.00 Build 0)  -->
<!DOCTYPE svg PUBLIC "-//W3C//DTD SVG 1.1//EN" "http://www.w3.org/Graphics/SVG/1.1/DTD/svg11.dtd">
<svg version="1.1" id="Layer_1" xmlns="http://www.w3.org/2000/svg" xmlns:xlink="http://www.w3.org/1999/xlink" x="0px" y="0px"
	 width="640px" height="960px" viewBox="0 0 640 960" enable-background="new 0 0 640 960" xml:space="preserve">
<g id="BG" display="none">
	<rect display="inline" opacity="0.86" enable-background="new    " width="640" height="960"/>
</g>
<g id="Button">
	<g>
		<path fill="#456E4A" d="M96.5,833c0-2.75,2.25-5,5-5h437c2.75,0,5,2.25,5,5v91c0,2.75-2.25,5-5,5h-437c-2.75,0-5-2.25-5-5V833z"/>
	</g>
</g>
<g id="ButtonText">
	<g>
		<path fill="#FAC403" d="M247.758,887.297v-16.543c0-14.082,7.52-15.367,11.977-15.367c7.574,0,10.254,4.484,10.254,9.898
			c0,1.996-0.273,3.555-0.656,5.578h-5.66v-2.215c0-5.113-1.422-7.687-4.129-7.687c-2.98,0-4.375,1.859-4.375,7.851v21.161
			c0,5.8,1.34,7.574,4.32,7.574c3.145,0,4.484-3.473,4.484-7.957v-6.098h-3.637v-4.648h10.527V902.5h-4.703l-0.766-4.43
			c-1.777,3.473-4.02,4.867-7.191,4.867C254.895,902.938,247.758,901.324,247.758,887.297z"/>
		<path fill="#FAC403" d="M276.113,887.297v-16.543c0-14.082,7.246-15.367,11.621-15.367c4.211,0,11.512,1.066,11.512,15.367v16.543
			c0,13.863-7.438,15.613-11.512,15.613C283.195,902.91,276.113,901.324,276.113,887.297z M291.863,890.059v-21.243
			c0-5.988-1.34-7.851-4.129-7.851c-2.871,0-4.211,1.859-4.211,7.851v21.243c0,5.8,1.34,7.521,4.211,7.521
			C290.523,897.578,291.863,895.855,291.863,890.059z"/>
		<path fill="#FAC403" d="M310.266,861.375h-7.52v-5.578h22.094v5.578h-7.492V902.5h-7.082V861.375z"/>
		<path fill="#FAC403" d="M341.602,855.797h7.082V902.5h-7.082V855.797z"/>
		<path fill="#FAC403" d="M360.988,861.375h-7.521v-5.578h22.097v5.578h-7.492V902.5h-7.082L360.988,861.375L360.988,861.375z"/>
		<path fill="#FAC403" d="M385.844,892.301c2.707,0,4.293,1.75,4.293,5.359c0,3.309-1.61,5.223-4.317,5.223
			c-2.57,0-4.238-1.805-4.238-5.223C381.578,893.832,383.219,892.301,385.844,892.301z M382.043,852.926h7.465l-0.848,34.398H383
			L382.043,852.926z"/>
	</g>
</g>
<g id="CallOutText">
	<path fill="#FFFFFF" d="M409.359,644.631h-7.807v-5.119h22.21v5.119h-7.89v21.836h-6.517L409.359,644.631L409.359,644.631z"/>
	<path fill="#FFFFFF" d="M430.882,659.548l-2.058,6.919h-6.732l8.79-26.955h8.575l9.005,26.955h-7.075l-2.229-6.919H430.882z
		 M438.214,654.988l-1.801-5.722c-0.515-1.6-1.029-3.6-1.458-5.196h-0.086c-0.429,1.6-0.857,3.64-1.329,5.196l-1.715,5.722H438.214z
		"/>
	<path fill="#FFFFFF" d="M452.275,639.871c2.015-0.319,4.845-0.562,8.832-0.562c4.028,0,6.9,0.723,8.833,2.159
		c1.887,1.36,3.087,3.603,3.087,6.239s-0.9,4.919-2.658,6.398c-2.229,1.92-5.531,2.84-9.391,2.84c-0.856,0-1.632-0.04-2.229-0.16
		v9.679h-6.475L452.275,639.871L452.275,639.871z M458.75,652.109c0.557,0.119,1.2,0.157,2.188,0.157
		c3.475,0,5.616-1.64,5.616-4.356c0-2.479-1.844-3.96-5.146-3.96c-1.286,0-2.188,0.08-2.658,0.2V652.109L458.75,652.109z"/>
	<path fill="#FFFFFF" d="M489.792,644.631h-7.804v-5.119h22.21v5.119h-7.893v21.836h-6.517L489.792,644.631L489.792,644.631z"/>
	<path fill="#FFFFFF" d="M532.882,652.709c0,8.879-5.703,14.197-14.189,14.197c-8.532,0-13.595-6.038-13.595-13.757
		c0-8.079,5.574-14.118,14.063-14.118C528.037,639.031,532.882,645.23,532.882,652.709z M512.001,653.029
		c0,5.316,2.658,9.038,7.031,9.038c4.417,0,6.943-3.919,6.943-9.158c0-4.879-2.441-9.039-6.943-9.039
		C514.573,643.87,512.001,647.79,512.001,653.029z"/>
	<path fill="#FFFFFF" d="M430.197,700.709c0,8.879-5.703,14.197-14.192,14.197c-8.532,0-13.592-6.038-13.592-13.757
		c0-8.079,5.574-14.118,14.062-14.118C425.353,687.031,430.197,693.23,430.197,700.709z M409.316,701.029
		c0,5.316,2.655,9.038,7.028,9.038c4.417,0,6.946-3.919,6.946-9.158c0-4.879-2.444-9.039-6.946-9.039
		C411.889,691.87,409.316,695.79,409.316,701.029z"/>
	<path fill="#FFFFFF" d="M434.483,687.871c2.101-0.319,5.188-0.562,8.704-0.562c4.284,0,7.286,0.603,9.347,2.119
		c1.759,1.28,2.701,3.2,2.701,5.683c0,3.396-2.615,5.759-5.104,6.599v0.12c2.018,0.76,3.13,2.52,3.858,4.999
		c0.897,3.079,1.758,6.599,2.312,7.639h-6.688c-0.43-0.8-1.158-2.96-1.976-6.277c-0.812-3.398-2.058-4.278-4.76-4.318h-1.929v10.599
		h-6.477v-26.597L434.483,687.871L434.483,687.871z M440.958,699.47h2.572c3.259,0,5.188-1.521,5.188-3.88
		c0-2.438-1.801-3.72-4.803-3.72c-1.586,0-2.486,0.08-2.958,0.2L440.958,699.47L440.958,699.47z"/>
	<path fill="#FFFFFF" d="M459.907,687.911c2.398-0.359,5.531-0.603,8.79-0.603c5.531,0,9.133,0.963,11.877,2.882
		c3.001,2.078,4.888,5.396,4.888,10.156c0,5.158-2.016,8.721-4.76,10.919c-3.044,2.358-7.718,3.479-13.377,3.479
		c-3.388,0-5.832-0.2-7.418-0.4V687.911z M466.425,709.867c0.56,0.12,1.5,0.12,2.272,0.12c5.96,0.04,9.858-2.999,9.858-9.438
		c0-5.599-3.516-8.559-9.176-8.559c-1.415,0-2.398,0.12-2.958,0.24L466.425,709.867L466.425,709.867z"/>
	<path fill="#FFFFFF" d="M506.941,703.068h-10.637v6.396h11.878v4.999H489.79V687.51h17.794v4.999h-11.277v5.602h10.637
		L506.941,703.068L506.941,703.068z"/>
	<path fill="#FFFFFF" d="M512.643,687.871c2.104-0.319,5.188-0.562,8.704-0.562c4.287,0,7.289,0.603,9.35,2.119
		c1.758,1.28,2.698,3.2,2.698,5.683c0,3.396-2.612,5.759-5.102,6.599v0.12c2.015,0.76,3.13,2.52,3.858,4.999
		c0.897,3.079,1.758,6.599,2.312,7.639h-6.688c-0.432-0.8-1.158-2.96-1.976-6.277c-0.812-3.398-2.058-4.278-4.76-4.318h-1.929
		v10.599h-6.478v-26.597L512.643,687.871L512.643,687.871z M519.117,699.47h2.572c3.259,0,5.188-1.521,5.188-3.88
		c0-2.438-1.801-3.72-4.803-3.72c-1.586,0-2.486,0.08-2.958,0.2L519.117,699.47L519.117,699.47z"/>
</g>
<g id="GiantBrace">
	<g opacity="0.4">
		<path stroke="#FFFFFF" stroke-miterlimit="10" d="M378.925,684.616c-18.604,0-21.266,10.664-21.531,18.601
			c0,6.448,1.062,13.146,2.126,20.088c1.063,6.696,2.13,13.643,2.13,20.336c0,25.051-16.747,33.979-38.548,33.979h-5.582v-13.644
			h4.521c14.886-0.245,21.266-7.688,21.266-21.573c0-5.951-1.062-11.903-1.858-17.855c-1.062-6.2-2.126-12.397-2.126-19.097
			c-0.269-15.872,7.439-24.058,19.402-27.032v-0.495c-11.963-2.977-19.402-10.912-19.402-26.783c0-6.694,1.062-12.646,2.126-18.85
			c0.798-5.952,1.858-11.904,1.858-17.605c0-13.395-5.582-21.079-21.266-21.327h-4.521v-13.644h5.316
			c22.595,0,38.812,9.672,38.812,32.488c0,6.696-1.063,13.64-2.13,20.832c-1.062,6.696-2.126,13.64-2.126,20.584
			c0,8.681,2.658,18.353,21.531,18.353L378.925,684.616L378.925,684.616z"/>
	</g>
</g>
<g id="Card">
	<g id="CardBackground">
		<path fill="#FFFFFF" d="M96.5,575c0-2.75,2.25-5,5-5h189.367c2.75,0,5,2.25,5,5v209c0,2.75-2.25,5-5,5H101.5c-2.75,0-5-2.25-5-5
			V575z"/>
	</g>
	<g id="RestaurantLogo">
		<g>
			<path fill="#F58220" d="M254.671,662.467c1.368,0,2.518,1.006,2.518,2.325c0,1.349-1.149,2.354-2.518,2.354
				c-1.375,0-2.533-1.009-2.533-2.354C252.138,663.473,253.296,662.467,254.671,662.467z M254.671,666.803
				c1.161,0,2.06-0.861,2.06-2.011c0-1.12-0.899-1.982-2.06-1.982c-1.176,0-2.076,0.862-2.076,1.982
				C252.595,665.938,253.495,666.803,254.671,666.803z M253.691,663.435h1.134c0.696,0,1.029,0.261,1.029,0.782
				c0,0.495-0.337,0.7-0.774,0.743l0.838,1.211h-0.487l-0.799-1.178h-0.485v1.178h-0.455L253.691,663.435L253.691,663.435z
				 M254.146,664.649h0.475c0.404,0,0.775-0.021,0.775-0.451c0-0.362-0.338-0.421-0.645-0.421h-0.605V664.649z"/>
			<g>
				<path fill="#F58220" d="M195.415,608.234l-25.817,62.146l-19.896-48.198c-2.429-5.248-7.89-8.396-13.645-8.437h-26.172v-10.894
					h29.117c3.88,0.037,7.551,2.19,9.136,5.75l22.086,53.388l25.19-61.731l25.166,61.701l22.114-53.355
					c1.581-3.559,5.252-5.712,9.137-5.747h29.114v10.892h-26.173c-5.755,0.04-11.219,3.188-13.644,8.438l-19.922,48.17
					L195.415,608.234z"/>
				<path fill="#F58220" d="M195.415,592.31l-24.675,62.859l-18.717-48.174c-2.337-5.456-7.944-8.778-13.878-8.794l-28.26,0.005
					v-10.89h31.475c4.017,0.003,7.8,2.275,9.325,5.98l20.679,53.499l24.05-62.086l24.028,62.056l20.702-53.469
					c1.525-3.705,5.31-5.979,9.325-5.98h31.477v10.89l-28.261-0.005c-5.934,0.016-11.54,3.338-13.876,8.794l-18.739,48.146
					L195.415,592.31z"/>
				<path fill="#F58220" d="M195.415,640.005l-28.095,60.757l-22.239-48.188c-2.673-5.019-8.142-7.874-13.771-7.752h-21.425v-10.888
					l24.272-0.003c3.787-0.062,7.45,1.894,9.198,5.286l24.593,53.175l27.466-60.288l27.445,60.264l24.618-53.147
					c1.747-3.396,5.406-5.35,9.196-5.286l24.273,0.006v10.885H259.52c-5.628-0.122-11.099,2.733-13.771,7.752l-22.264,48.166
					L195.415,640.005z"/>
				<path fill="#F58220" d="M195.415,655.675l-29.231,60.263l-26.136-53.137c-0.888-1.558-2.6-2.447-4.371-2.445h-25.792V649.47
					h21.901c3.707-0.083,7.318,1.773,9.125,5.062l25.933,53.057l28.571-59.788l28.549,59.758l25.956-53.023
					c1.808-3.285,5.419-5.145,9.125-5.062h21.901v10.887h-25.794c-1.769,0-3.483,0.89-4.369,2.444l-26.162,53.105L195.415,655.675z"
					/>
				<path fill="#F58220" d="M195.415,624.17l-26.955,61.399l-21.065-48.284c-2.369-4.758-7.24-7.663-12.478-8.03h-25.032v-10.862
					l26.742-0.003c3.813,0.009,7.453,2.062,9.112,5.521l23.348,53.291l26.329-60.852l26.306,60.82l23.373-53.263
					c1.658-3.459,5.297-5.513,9.112-5.521l26.741,0.003v10.862h-25.033c-5.237,0.367-10.11,3.271-12.478,8.03l-21.088,48.258
					L195.415,624.17z"/>
			</g>
		</g>
		<g>
			<path fill="#F58220" d="M284.108,738.341c1.371,0,2.518,1.007,2.518,2.327c0,1.346-1.147,2.354-2.518,2.354
				c-1.372,0-2.528-1.011-2.528-2.354C281.581,739.348,282.736,738.341,284.108,738.341z M284.108,742.677
				c1.163,0,2.062-0.864,2.062-2.009c0-1.12-0.899-1.982-2.062-1.982c-1.171,0-2.071,0.862-2.071,1.982
				C282.037,741.812,282.937,742.677,284.108,742.677z M283.131,739.312h1.135c0.694,0,1.026,0.255,1.026,0.777
				c0,0.493-0.337,0.702-0.772,0.746l0.84,1.206h-0.491l-0.794-1.177h-0.487v1.177h-0.456L283.131,739.312L283.131,739.312z
				 M283.586,740.524h0.476c0.405,0,0.774-0.02,0.774-0.451c0-0.364-0.337-0.418-0.648-0.418h-0.602V740.524z"/>
			<g>
				<g>
					<path fill="#F58220" d="M110.864,723.77c0.312,1.213,3.177,13.788,3.724,16.602c0.408,2.107,2.014,2.425,2.882,2.431
						c0.967,0.007,1.721,0.016,2.69-0.179c0.901-0.18,1.294-0.189,1.197-1.196c-0.099-1.003,0.045-5.018,1.353-6.916
						c0,0,0.888,2.63,1.241,5.834c0.098,0.905,0.628,1.763,1.377,2.12c0.857,0.407,3.478,0.493,4.734,0.036
						c0.54-0.198,0.651-0.396,0.89-3.208c0.087-1.002,1.294-12.034,4.9-18.03c0,0-1.272-1.816-3.964-1.839
						c-0.862-0.006-1.271-0.256-2.167,1.288c-0.982,1.698-2.317,6.812-2.549,8.212c0,0-1.479-2.722-1.647-8.145
						c-0.022-0.812-0.313-0.906-0.852-0.91c-0.538-0.004-2.246-0.277-3.011-0.127c-0.91,0.183-1.155-0.168-0.888,2.905
						c0,0-1.453,5.812-1.576,7.817c0,0-2.642-5.343-1.63-10.252c0,0-3.543-1.034-5.705,0.151
						C109.699,721.554,110.654,722.967,110.864,723.77z"/>
					<path fill="#F58220" d="M141.014,733.449c0.323,0.001,2.584-0.08,3.013,0.021c0.432,0.105,0.323,0.004,0.318,0.505
						c-0.004,0.506-0.686,4.711-0.478,5.418c0.209,0.705,0.315,1.01,0.741,1.413c0.426,0.403,1.955,1.783,2.71,1.894
						c0.749,0.104,0.973-0.497,1.082-0.999c0.114-0.501,3.012-15.496,3.131-16.701c0.118-1.205,0.233-2.204-0.616-3.115
						c-0.855-0.912-2.79-2.118-4.397-1.943c-0.863,0.095-0.749-0.31-0.872,1.194c-0.119,1.508-0.49,6.625-0.601,7.127
						c-0.114,0.501-0.086,0.42-0.65,0.396c-0.324-0.016-2.644-0.003-3.015-0.023c-0.338-0.021-0.375,0.055-0.317-0.604
						c0.035-0.401,0.138-6.807,0.395-7.729c0.11-0.397,0.06-0.5-0.585-0.502c-0.646-0.007-2.315-0.121-3.397,0.476
						c-1.082,0.591-1.354,0.524-1.853,2.691c-0.897,3.909-0.78,14.653-0.581,16.361c0.201,1.709,2.663,2.832,3.952,3.243
						c1.29,0.415,1.615,0.216,1.619-0.586c0.011-0.809,0.066-7.634,0.076-8.034C140.698,733.444,140.691,733.444,141.014,733.449z"
						/>
					<path fill="#F58220" d="M163.367,725.19c-0.312-1.206,0.123-1.808-1.264-3.12c-1.661-1.577-4.079-2.241-4.716-2.146
						c-0.645,0.092-0.429-0.103-1.296,0.691c-0.868,0.797-5.521,15.316-5.742,15.918c-0.222,0.601-0.542,0.799-0.231,1.807
						c0.578,1.854,2.227,3.631,3.298,4.146c1.074,0.51,1.077-0.294,1.191-0.897c0.113-0.601,1.222-4.104,1.335-4.604
						c0.113-0.503,0.208-0.353,0.651-0.396c0.483-0.052,2.661-0.056,2.983-0.052c0.485,0.005,0.372-0.004,0.562,0.479
						c0.317,0.811,0.7,2.868,1.017,3.372c0.515,0.818,4.599,2.458,5.225,2.604c0,0,0.926,0.015,0.93-0.386
						C167.323,741.424,163.678,726.4,163.367,725.19z M156.805,732.472l1.478-5.784l1.499,5.915L156.805,732.472z"/>
					<path fill="#F58220" d="M187.965,725.487c-0.739-2.742-0.544-2.412-1.328-3.12c-1.741-1.577-3.917-2.34-4.585-2.248
						c-0.676,0.097-1.058,0.094-1.966,0.888c-0.91,0.796-5.172,15.121-5.402,15.72c-0.23,0.603-0.441,1.179-0.115,2.186
						c0.607,1.854,2.531,2.758,3.654,3.268c1.122,0.517,1.13-0.292,1.249-0.895c0.117-0.604,0.677-4.014,0.793-4.514
						c0.116-0.502,0.23-0.3,0.68-0.396c0.452-0.099,2.86,0.021,3.196,0.026c0.342,0,0.69-0.182,0.941,0.48
						c0.366,0.981,0.841,3.043,1.175,3.549c0.539,0.814,3.825,2.142,4.503,2.146c0.674,0.003,1.514-0.189,1.41-1.296
						C192.059,740.113,188.286,726.696,187.965,725.487z M181.411,732.301l1.664-6.215l1.46,6.41L181.411,732.301z"/>
					<path fill="#F58220" d="M178.534,720.117c-1.776-0.161-5.949-0.136-7.104-0.061c-0.963,0.067-3.066,0.153-4.254,0.545
						c-1.188,0.395-1.944,0.688-2.271,0.987c-0.325,0.298-0.432,0.396-0.44,1.101c-0.006,0.701-0.121,1.506-0.125,2.006
						c-0.005,0.503,0.1,0.904,0.529,1.105c0.427,0.207,1.076-0.291,3.555-0.472c0,0-0.032,3.312-0.26,4.716
						c-0.227,1.405-0.791,7.225-0.697,8.729c0,0,0.228,1.583,4,3.797c0.579,0.341,0.861,0.032,1.297-0.364
						c0.276-0.255,0.141-0.778,0.145-1.08c0.002-0.301-0.037-8.03,1.333-16.455c0,0,2.354-0.652,3.452-0.875
						c0,0,1.054-2.521,1.319-3.002C179.258,720.349,178.534,720.117,178.534,720.117z"/>
					<path fill="#F58220" d="M207.289,735.178c-0.205-0.807-1.583-3.021-2.978-3.736c0,0,1.195-0.992,1.634-2.193
						c0.442-1.2,0.56-5.216-2.727-7.751c-1.468-1.135-3.104-1.646-4.287-1.844c-0.78-0.134-4.099,0.77-4.958,0.765
						c-0.862-0.006-1.183,0.093-1.519,1.395c-0.956,3.72-1.301,10.745,0.159,17.771c0.274,1.315,0.625,2.315,2.129,2.627
						c1.506,0.313,3.226,0.327,3.448-0.475c0,0,2.356,1.021,3.76,0.936c1.399-0.09,4.959-0.965,5.639-4.575
						C207.813,736.903,207.496,735.985,207.289,735.178z M197.235,728.372c0.004-0.401,0.032-3.514,0.037-4.016
						c0.005-0.501,0.116-0.808,0.653-0.698c0.536,0.104,0.862-0.093,1.931,1.021c1.064,1.113,1.521,3.296,0.957,3.975
						c-1.413,1.692-2.938,0.526-3.26,0.427C197.233,728.975,197.233,728.771,197.235,728.372z M201.349,737.641
						c-0.759,0.802-2.479,0.483-2.908,0.381c-0.427-0.104-0.746-0.605-0.851-1.109c-0.104-0.503-0.23-2.541-0.294-3.24
						c-0.146-1.658-0.095-1.281,0.658-1.174c0.75,0.104,2.578,1.142,3.211,1.882C201.723,735.035,202.11,736.845,201.349,737.641z"
						/>
					<path fill="#F58220" d="M213.332,721.673c-0.241,1.224-0.839,11.043,0.94,15.168c0.736,1.711,1.928,1.888,2.475-0.079
						c1.002-3.604,1.431-8.492,0.028-14.858c-0.31-1.407-0.635-1.188,0.87-1.298c0.646-0.053,3.232-0.18,3.877-0.174
						c0.648,0.01,1.346,1.103,1.492,1.724c0.829,3.52,0.298,9.625-0.65,12.439c-1.219,3.605-2.214,5.607-4.589,7.494
						c-1.626,1.293-4.529,1.067-6.664-1.155c-1.934-2.021-3.282-5.647-3.786-9.364c-0.264-1.938-0.479-6.331,0.193-9.842
						c0.185-0.937,0.769-1.301,1.414-1.395c0.649-0.095,2.9-0.067,3.869,0.436C213.513,721.127,213.473,720.957,213.332,721.673z"/>
					<path fill="#F58220" d="M238.767,741.452c-2.389-3.4-4.66-8.571-4.66-8.571c0.76-0.493,2.713-2.389,3.588-3.887
						c0.875-1.5,1.661-5.005,0.062-6.827c-1.418-1.615-3.528-2.211-7.628-1.366c0,0-0.276-0.266-0.533-0.604
						c-0.211-0.275-0.75-0.404-1.828-0.212c-1.078,0.188-1.761,0.177-2.274,1.483c-1.872,4.807-1.945,12.636-1.239,17.66
						c0.147,1.017,0.147,1.71,0.896,2.218c1.729,1.173,3.485,1.533,4.347,1.438c0.864-0.093,0.911-0.074,0.655-0.898
						c-0.627-2.011-0.487-5.627-0.487-5.627c3.876,5.531,5.244,5.993,5.887,6.299c0.645,0.31,2.121,0.285,2.773-0.001
						C239.434,742.062,239.348,742.286,238.767,741.452z M233.517,726.854c-0.124,1.707-1.238,3.025-3.266,4.093
						c-0.885,0.463-0.646,0.095-0.749-0.511c-0.255-1.517,0.26-4.812,0.371-5.419c0.114-0.602,0,0,0.437-0.396
						c0.437-0.397,0.971,0.007,1.937-0.087C233.216,724.441,233.642,725.146,233.517,726.854z"/>
					<path fill="#F58220" d="M280.41,741.683c-2.584-3.271-4.893-9.353-4.893-9.353c0.759-0.494,2.58-2.043,3.452-3.54
						c0.874-1.503,1.37-4.254,0.119-6.295c-1.496-2.422-4.181-3.044-8.927-1.676c0,0-0.426-0.404-0.828-0.589
						c-0.456-0.201-0.805-0.307-1.207-0.23c-1.08,0.189-1.356,0.544-1.741,1.893c-1.479,5.218-1.714,10.677-1.331,16.056
						c0.073,1.021,0.05,1.339,0.627,2.016c1.386,1.616,3.312,2.437,4.176,2.339c0.861-0.093,0.857-0.061,0.656-0.896
						c-0.487-1.994-0.142-5.943-0.142-5.943c3.822,5.854,5.413,6.086,6.056,6.394c0.643,0.305,2.893,1.229,3.543,0.932
						C280.619,742.488,280.729,742.087,280.41,741.683z M274.512,727.68c-0.446,1.401-2.313,2.445-3.149,2.986
						c-1.203,0.784-0.903,0.233-0.881-0.376c0.076-1.845,0.52-4.364,0.721-4.946c0.138-0.396,0.125-0.736,0.706-0.913
						c0.483-0.146,1.086-0.36,1.905,0.135C274.695,725.096,275.032,726.04,274.512,727.68z"/>
					<path fill="#F58220" d="M244.447,720.312c-1.41,0.791-3.677,1.979-6.222,9.484c-1.039,3.067-0.397,8.031,1.415,10.155
						c1.81,2.118,3.096,2.533,3.954,2.842c0.857,0.31,1.291,0.107,1.94-0.287c0.649-0.395,1.729-0.788,2.162-1.188
						c0.436-0.397,2.174-2.293,2.526-5.404c0,0,0.539-0.094,1.079-0.291c0.54-0.195,0.761-0.596,0.982-1.396
						c0.221-0.805,0.446-1.703,0.341-2.205c-0.1-0.502-0.754-0.854-2.396-0.969c-2.8-0.191-4.518,0.497-4.92,0.705
						c-0.6,0.315-0.538,0.301-0.763,1.201c-0.223,0.902-0.341,1.904-0.236,2.407c0.101,0.501,0.317,0.507,0.75,0.507
						c0.428,0.003,0.211,0.206-0.01,0.703c-0.221,0.502-0.758,0.698-0.976,0.996c-0.221,0.299-0.85-0.009-0.966-0.609
						c-0.511-2.712,0.366-8.62,3.343-12.316c1.524-1.899,1.283,1.012,1.062,1.607c-0.221,0.604-0.121,1.204,0.525,1.312
						c0.645,0.104,2.581,0.221,3.12-0.076c0.543-0.296,1.193-0.994,1.307-1.396c0.111-0.399,0.458-3.208-0.608-4.322
						c-1.065-1.111-1.384-1.616-5.041-1.946C245.847,719.742,245.405,719.771,244.447,720.312z"/>
					<path fill="#F58220" d="M264.252,719.967c-0.648,0.101-2.157,0.188-2.908,0.18c-0.752-0.006-3.873-0.229-5.275,0.262
						c-1.407,0.486-1.511,0.486-1.739,1.592c-0.222,1.104-0.878,2.304-0.799,5.216c0.084,2.912-0.513,9.032-0.851,10.737
						c0,0-1.52,1.594-1.423,2.396c0.101,0.807,0.532,1.107,0.958,1.518c0.425,0.403,0.748,0.707,1.069,0.812
						c0.32,0.104,4.312-1.069,8.616-0.732c0,0,1.633-2.397,1.859-3.396c0.225-1.004,0.111-1.48-0.739-1.613
						c-1.183-0.187-2.311-0.27-3.872-0.027c-0.543,0.083-0.621,0.119-0.642-0.61c-0.008-0.301,0.052-2.962,0.052-2.962
						s0.057-0.352,0.489-0.443c0.433-0.1,2.938-0.381,3.582-0.477c0,0,0.637-1.979,0.966-2.576c0.547-1-1.026-1.343-0.473-1.209
						c-0.643-0.156-3.063,0.094-4.038,0.271c-0.539,0.099-0.077-0.527-0.073-0.933c0.004-0.396,0.237-2.305,0.348-2.808
						c0,0,3.044-0.527,3.478-0.523c0,0,0.838-0.722,1.954-2.019C266.054,721.136,266.188,719.683,264.252,719.967z"/>
				</g>
			</g>
		</g>
	</g>
	<g id="RestaurantText">
		<path fill="#456E4A" d="M146.955,762.488h2.335l1.083,9.067l0.123,2.118h0.235l0.226-2.382l1.732-8.807h1.949l1.657,8.807
			l0.188,2.382h0.245l0.113-2.118l0.988-9.067h2.344l-2.25,15.012h-2.476l-1.328-7.216l-0.414-3.138h-0.188l-0.405,3.138
			l-1.393,7.216h-2.448L146.955,762.488z"/>
		<path fill="#456E4A" d="M161.764,761.513h2.382v2.851l-0.123,2.071c0.706-0.902,1.647-1.178,2.523-1.178
			c1.506,0,2.373,1.002,2.373,2.972v9.271h-2.382v-9.193c0-1.062-0.358-1.424-1.036-1.424c-0.48,0-0.998,0.325-1.355,0.844v9.773
			h-2.382V761.513z"/>
		<path fill="#456E4A" d="M170.676,774.723c0-1.983,1.055-3.029,3.032-3.943c0.471-0.223,1.139-0.478,1.601-0.634v-1.602
			c0-0.938-0.076-1.661-1.083-1.661c-0.678,0-1.318,0.434-1.318,1.819v0.524h-1.817c-0.113-0.455-0.169-0.814-0.169-1.192
			c0-1.802,1.402-2.777,3.379-2.777c2.58,0,3.324,1.037,3.324,3.185v9.062h-1.77l-0.169-1.037c-0.508,0.688-1.412,1.169-2.504,1.169
			C171.58,777.632,170.676,776.375,170.676,774.723z M175.308,775.417v-3.788c-0.245,0.097-0.575,0.211-0.932,0.422
			c-0.668,0.387-1.365,1.146-1.365,2.329c0,0.923,0.367,1.538,1.224,1.538C174.63,775.918,175.044,775.698,175.308,775.417z"/>
		<path fill="#456E4A" d="M180.37,766.979h-1.007v-1.579h1.214l0.48-3.141h1.695v3.141h2.071v1.579h-2.071v7.699
			c0,1.058,0.471,1.239,1.026,1.239c0.461,0,0.81-0.114,1.129-0.299v1.229c-0.546,0.624-1.309,0.791-1.977,0.791
			c-1.327,0-2.561-0.524-2.561-3.152L180.37,766.979L180.37,766.979z"/>
		<path fill="#456E4A" d="M185.74,774.723c0-1.983,1.055-3.029,3.032-3.943c0.471-0.223,1.139-0.478,1.601-0.634v-1.602
			c0-0.938-0.076-1.661-1.083-1.661c-0.678,0-1.318,0.434-1.318,1.819v0.524h-1.817c-0.113-0.455-0.17-0.814-0.17-1.192
			c0-1.802,1.403-2.777,3.38-2.777c2.58,0,3.324,1.037,3.324,3.185v9.062h-1.77l-0.169-1.037c-0.508,0.688-1.412,1.169-2.504,1.169
			C186.644,777.632,185.74,776.375,185.74,774.723z M190.372,775.417v-3.788c-0.245,0.097-0.575,0.211-0.932,0.422
			c-0.668,0.387-1.365,1.146-1.365,2.329c0,0.923,0.367,1.538,1.224,1.538C189.694,775.918,190.108,775.698,190.372,775.417z"/>
		<path fill="#456E4A" d="M195.16,761.513h2.382v3.229l-0.076,1.6l0.01,0.009c0.433-0.562,1.12-1.081,2.156-1.081
			c0.791,0,2.693,0.229,2.693,4.345v3.664c0,4.104-1.912,4.366-2.787,4.366c-1.214,0-1.892-0.624-2.316-1.266l-0.198,1.125h-1.864
			V761.513z M198.728,775.918c0.697,0,1.196-0.404,1.196-2.206v-4.632c0-1.802-0.49-2.197-1.187-2.197
			c-0.583,0-0.96,0.378-1.195,0.817v7.348C197.749,775.496,198.097,775.918,198.728,775.918z"/>
		<path fill="#456E4A" d="M204.496,765.396h2.382v9.098c0,1.062,0.358,1.424,1.036,1.424c0.471,0,0.951-0.255,1.309-0.712v-9.81
			h2.382V777.5h-1.817l-0.235-1.292h-0.009c-0.744,1.099-1.723,1.433-2.674,1.433c-1.506,0-2.373-0.99-2.373-2.971L204.496,765.396
			L204.496,765.396z"/>
		<path fill="#456E4A" d="M214.096,765.396h1.742l0.207,1.229c0.518-0.914,1.243-1.371,1.958-1.371c1.365,0,2.005,0.791,2.005,2.355
			c0,0.401-0.141,1.148-0.32,1.644h-1.657v-1.125c0-0.976-0.282-1.248-0.631-1.248c-0.376,0-0.706,0.246-0.922,0.65v9.967h-2.382
			V765.396z"/>
		<path fill="#456E4A" d="M223.459,778.326c0,1.037,0.414,1.433,1.271,1.433c0.707,0,1.347-0.325,1.347-1.802v-1.907
			c-0.424,0.51-1.073,0.94-2.071,0.94c-0.875,0-2.787-0.267-2.787-4.377v-3.185c0-3.938,1.901-4.166,2.843-4.166
			c1.261,0,1.892,0.68,2.24,1.318l0.217-1.195h1.854v11.619c0,2.698-1.083,4.403-3.615,4.403c-1.713,0-3.106-0.478-3.106-2.382
			c0-0.167,0.038-0.425,0.122-0.703L223.459,778.326L223.459,778.326z M226,774.389v-6.617c-0.235-0.481-0.63-0.889-1.195-0.889
			c-0.697,0-1.196,0.378-1.196,2.188v3.979c0,1.802,0.508,2.215,1.205,2.215C225.436,775.268,225.793,774.837,226,774.389z"/>
		<path fill="#456E4A" d="M230.535,772.543v-2.285c0-4.623,2.363-5.001,3.738-5.001c1.713,0,3.267,0.861,3.267,3.779
			c0,0.976-0.123,2.057-0.311,2.83h-4.302v1.229c0,2.109,0.301,2.821,1.384,2.821c0.584,0,1.13-0.396,1.13-1.67v-0.378h1.986v0.466
			c0,2.294-1.205,3.296-3.427,3.296C231.768,777.632,230.535,776.146,230.535,772.543z M235.317,770.372
			c0.028-0.255,0.038-0.923,0.038-1.239c0-1.6-0.405-2.25-1.195-2.25c-0.838,0-1.233,0.668-1.233,2.751v0.738H235.317
			L235.317,770.372z"/>
		<path fill="#456E4A" d="M239.56,765.396h1.742l0.207,1.229c0.518-0.914,1.243-1.371,1.958-1.371c1.365,0,2.005,0.791,2.005,2.355
			c0,0.401-0.141,1.148-0.32,1.644h-1.657v-1.125c0-0.976-0.282-1.248-0.631-1.248c-0.376,0-0.706,0.246-0.922,0.65v9.967h-2.382
			V765.396z"/>
	</g>
</g>
<g id="BodyText">
	<path fill="#FFFFFF" d="M71.155,371.82c1.17,0.75,2.85,1.32,4.65,1.32c2.67,0,4.23-1.41,4.23-3.45c0-1.86-1.08-2.97-3.81-3.99
		c-3.3-1.2-5.339-2.939-5.339-5.76c0-3.15,2.61-5.49,6.54-5.49c2.04,0,3.57,0.48,4.44,0.99l-0.72,2.13
		c-0.63-0.39-1.98-0.96-3.81-0.96c-2.76,0-3.81,1.65-3.81,3.03c0,1.89,1.23,2.82,4.02,3.9c3.419,1.32,5.129,2.97,5.129,5.94
		c0,3.12-2.28,5.85-7.049,5.85c-1.95,0-4.08-0.6-5.16-1.32L71.155,371.82z"/>
	<path fill="#FFFFFF" d="M89.125,356.401c0,0.9-0.63,1.62-1.68,1.62c-0.96,0-1.59-0.72-1.59-1.62s0.66-1.65,1.65-1.65
		C88.465,354.751,89.125,355.471,89.125,356.401z M86.185,375v-14.52h2.64V375H86.185z"/>
	<path fill="#FFFFFF" d="M103.554,374.49c-0.69,0.33-2.22,0.84-4.17,0.84c-4.38,0-7.229-2.97-7.229-7.41
		c0-4.47,3.06-7.74,7.799-7.74c1.56,0,2.94,0.39,3.66,0.78l-0.6,2.01c-0.63-0.33-1.62-0.69-3.06-0.69c-3.33,0-5.129,2.49-5.129,5.49
		c0,3.36,2.16,5.43,5.04,5.43c1.5,0,2.49-0.36,3.24-0.69L103.554,374.49z"/>
	<path fill="#FFFFFF" d="M110.455,354.241c-0.69,2.52-1.98,5.76-2.79,7.14l-1.68,0.18c0.63-1.77,1.44-4.86,1.77-7.02
		L110.455,354.241z"/>
	<path fill="#FFFFFF" d="M112.524,368.22c0.06,3.57,2.31,5.04,4.98,5.04c1.89,0,3.06-0.33,4.02-0.75l0.48,1.89
		c-0.93,0.42-2.55,0.93-4.86,0.93c-4.47,0-7.14-2.97-7.14-7.35s2.58-7.8,6.81-7.8c4.77,0,6,4.14,6,6.81c0,0.54-0.03,0.93-0.09,1.23
		H112.524L112.524,368.22z M120.264,366.331c0.03-1.65-0.69-4.26-3.66-4.26c-2.7,0-3.84,2.43-4.05,4.26H120.264z"/>
	<path fill="#FFFFFF" d="M126.084,364.411c0-1.53-0.06-2.73-0.12-3.93h2.31l0.12,2.37h0.09c0.81-1.38,2.16-2.67,4.59-2.67
		c1.95,0,3.45,1.2,4.08,2.91h0.06c0.45-0.84,1.05-1.44,1.65-1.89c0.87-0.66,1.8-1.02,3.18-1.02c1.95,0,4.8,1.26,4.8,6.3V375h-2.58
		v-8.189c0-2.82-1.05-4.47-3.15-4.47c-1.53,0-2.67,1.11-3.15,2.37c-0.12,0.39-0.21,0.84-0.21,1.32V375h-2.58v-8.7
		c0-2.31-1.02-3.96-3.03-3.96c-1.62,0-2.85,1.32-3.27,2.64c-0.15,0.36-0.21,0.84-0.21,1.29V375h-2.58V364.411L126.084,364.411z"/>
	<path fill="#FFFFFF" d="M157.554,355.081c1.59-0.27,3.48-0.45,5.55-0.45c3.75,0,6.42,0.9,8.19,2.52c1.83,1.65,2.88,3.99,2.88,7.26
		c0,3.3-1.05,6-2.91,7.859c-1.92,1.89-5.04,2.91-8.97,2.91c-1.89,0-3.42-0.09-4.74-0.24V355.081z M160.164,372.96
		c0.66,0.09,1.62,0.12,2.64,0.12c5.61,0,8.609-3.12,8.609-8.58c0.03-4.77-2.67-7.8-8.189-7.8c-1.35,0-2.37,0.12-3.06,0.27V372.96z"
		/>
	<path fill="#FFFFFF" d="M179.033,368.22c0.06,3.57,2.31,5.04,4.98,5.04c1.89,0,3.06-0.33,4.02-0.75l0.48,1.89
		c-0.93,0.42-2.55,0.93-4.86,0.93c-4.47,0-7.14-2.97-7.14-7.35s2.58-7.8,6.81-7.8c4.77,0,6,4.14,6,6.81c0,0.54-0.03,0.93-0.09,1.23
		H179.033L179.033,368.22z M186.773,366.331c0.03-1.65-0.69-4.26-3.66-4.26c-2.7,0-3.84,2.43-4.05,4.26H186.773z"/>
	<path fill="#FFFFFF" d="M192.593,353.701h2.64V375h-2.64V353.701z"/>
	<path fill="#FFFFFF" d="M202.613,356.401c0,0.9-0.63,1.62-1.68,1.62c-0.96,0-1.59-0.72-1.59-1.62s0.66-1.65,1.65-1.65
		C201.953,354.751,202.613,355.471,202.613,356.401z M199.673,375v-14.52h2.64V375H199.673z"/>
	<path fill="#FFFFFF" d="M207.712,360.48l2.85,8.13c0.48,1.35,0.87,2.55,1.17,3.75h0.09c0.33-1.2,0.75-2.4,1.23-3.75l2.82-8.13h2.76
		l-5.7,14.52h-2.52l-5.52-14.52H207.712z"/>
	<path fill="#FFFFFF" d="M222.292,368.22c0.06,3.57,2.31,5.04,4.98,5.04c1.89,0,3.06-0.33,4.02-0.75l0.48,1.89
		c-0.93,0.42-2.55,0.93-4.86,0.93c-4.47,0-7.14-2.97-7.14-7.35s2.58-7.8,6.81-7.8c4.77,0,6,4.14,6,6.81c0,0.54-0.03,0.93-0.09,1.23
		H222.292L222.292,368.22z M230.032,366.331c0.03-1.65-0.69-4.26-3.66-4.26c-2.7,0-3.84,2.43-4.05,4.26H230.032z"/>
	<path fill="#FFFFFF" d="M235.852,365.01c0-1.71-0.03-3.18-0.12-4.53h2.31l0.12,2.88h0.09c0.66-1.95,2.28-3.18,4.05-3.18
		c0.27,0,0.48,0.03,0.72,0.06v2.49c-0.27-0.06-0.54-0.06-0.9-0.06c-1.86,0-3.18,1.38-3.54,3.36c-0.06,0.36-0.09,0.81-0.09,1.23V375
		h-2.64V365.01L235.852,365.01z"/>
	<path fill="#FFFFFF" d="M248.722,356.401c0,0.9-0.63,1.62-1.68,1.62c-0.96,0-1.59-0.72-1.59-1.62s0.66-1.65,1.65-1.65
		C248.062,354.751,248.722,355.471,248.722,356.401z M245.782,375v-14.52h2.64V375H245.782z"/>
	<path fill="#FFFFFF" d="M254.271,368.22c0.06,3.57,2.31,5.04,4.98,5.04c1.89,0,3.06-0.33,4.02-0.75l0.48,1.89
		c-0.93,0.42-2.55,0.93-4.86,0.93c-4.47,0-7.14-2.97-7.14-7.35s2.58-7.8,6.81-7.8c4.77,0,6,4.14,6,6.81c0,0.54-0.03,0.93-0.09,1.23
		H254.271L254.271,368.22z M262.011,366.331c0.03-1.65-0.69-4.26-3.66-4.26c-2.7,0-3.84,2.43-4.05,4.26H262.011z"/>
	<path fill="#FFFFFF" d="M267.472,372.33c0.81,0.48,2.19,1.02,3.51,1.02c1.89,0,2.79-0.93,2.79-2.16c0-1.26-0.75-1.92-2.67-2.64
		c-2.64-0.96-3.87-2.37-3.87-4.11c0-2.34,1.92-4.26,5.01-4.26c1.47,0,2.76,0.39,3.54,0.9l-0.63,1.92c-0.57-0.36-1.62-0.87-2.97-0.87
		c-1.56,0-2.4,0.9-2.4,1.98c0,1.2,0.84,1.74,2.73,2.49c2.49,0.93,3.81,2.189,3.81,4.35c0,2.58-2.01,4.38-5.4,4.38
		c-1.59,0-3.06-0.42-4.08-1.02L267.472,372.33z"/>
	<path fill="#FFFFFF" d="M289.011,356.401c0,0.9-0.63,1.62-1.68,1.62c-0.96,0-1.59-0.72-1.59-1.62s0.66-1.65,1.65-1.65
		C288.351,354.751,289.011,355.471,289.011,356.401z M286.071,375v-14.52h2.64V375H286.071z"/>
	<path fill="#FFFFFF" d="M292.731,372.33c0.81,0.48,2.19,1.02,3.51,1.02c1.89,0,2.79-0.93,2.79-2.16c0-1.26-0.75-1.92-2.67-2.64
		c-2.64-0.96-3.87-2.37-3.87-4.11c0-2.34,1.92-4.26,5.01-4.26c1.47,0,2.76,0.39,3.54,0.9l-0.63,1.92c-0.57-0.36-1.62-0.87-2.97-0.87
		c-1.56,0-2.4,0.9-2.4,1.98c0,1.2,0.84,1.74,2.73,2.49c2.49,0.93,3.81,2.189,3.81,4.35c0,2.58-2.01,4.38-5.4,4.38
		c-1.59,0-3.06-0.42-4.08-1.02L292.731,372.33z"/>
	<path fill="#FFFFFF" d="M321.53,371.52c0,1.26,0.06,2.49,0.21,3.48h-2.37l-0.21-1.83h-0.09c-0.812,1.14-2.37,2.16-4.44,2.16
		c-2.938,0-4.438-2.07-4.438-4.17c0-3.51,3.118-5.43,8.729-5.4v-0.3c0-1.17-0.33-3.36-3.3-3.33c-1.38,0-2.79,0.39-3.812,1.08
		l-0.6-1.77c1.2-0.75,2.97-1.26,4.8-1.26c4.44,0,5.521,3.03,5.521,5.91V371.52z M318.98,367.59c-2.882-0.06-6.149,0.45-6.149,3.27
		c0,1.74,1.14,2.52,2.46,2.52c1.92,0,3.15-1.2,3.57-2.43c0.09-0.3,0.12-0.6,0.12-0.84L318.98,367.59L318.98,367.59z"/>
	<path fill="#FFFFFF" d="M344.659,353.701v17.549c0,1.29,0.06,2.76,0.12,3.75h-2.34l-0.12-2.52h-0.092
		c-0.778,1.62-2.521,2.85-4.89,2.85c-3.51,0-6.24-2.97-6.24-7.38c-0.027-4.83,3-7.77,6.512-7.77c2.25,0,3.721,1.05,4.38,2.19h0.06
		v-8.67L344.659,353.701L344.659,353.701z M342.049,366.39c0-0.33-0.029-0.78-0.119-1.11c-0.391-1.65-1.83-3.03-3.811-3.03
		c-2.729,0-4.352,2.4-4.352,5.58c0,2.94,1.473,5.37,4.29,5.37c1.771,0,3.392-1.2,3.87-3.15c0.09-0.36,0.119-0.72,0.119-1.14
		L342.049,366.39L342.049,366.39z"/>
	<path fill="#FFFFFF" d="M350.539,368.22c0.061,3.57,2.311,5.04,4.979,5.04c1.893,0,3.062-0.33,4.021-0.75l0.479,1.89
		c-0.93,0.42-2.551,0.93-4.857,0.93c-4.471,0-7.143-2.97-7.143-7.35s2.58-7.8,6.812-7.8c4.77,0,5.999,4.14,5.999,6.81
		c0,0.54-0.03,0.93-0.09,1.23H350.539L350.539,368.22z M358.279,366.331c0.028-1.65-0.689-4.26-3.66-4.26
		c-2.699,0-3.84,2.43-4.049,4.26H358.279z"/>
	<path fill="#FFFFFF" d="M364.1,353.701h2.642V375H364.1V353.701z"/>
	<path fill="#FFFFFF" d="M374.119,356.401c0,0.9-0.63,1.62-1.68,1.62c-0.963,0-1.592-0.72-1.592-1.62s0.66-1.65,1.649-1.65
		C373.459,354.751,374.119,355.471,374.119,356.401z M371.18,375v-14.52h2.641V375H371.18z"/>
	<path fill="#FFFFFF" d="M379.219,360.48l2.852,8.13c0.479,1.35,0.871,2.55,1.17,3.75h0.091c0.33-1.2,0.75-2.4,1.229-3.75l2.82-8.13
		h2.76l-5.7,14.52h-2.521l-5.52-14.52H379.219z"/>
	<path fill="#FFFFFF" d="M393.799,368.22c0.062,3.57,2.312,5.04,4.98,5.04c1.89,0,3.06-0.33,4.02-0.75l0.48,1.89
		c-0.933,0.42-2.551,0.93-4.86,0.93c-4.47,0-7.14-2.97-7.14-7.35s2.58-7.8,6.81-7.8c4.771,0,5.999,4.14,5.999,6.81
		c0,0.54-0.029,0.93-0.09,1.23H393.799L393.799,368.22z M401.539,366.331c0.029-1.65-0.69-4.26-3.66-4.26
		c-2.699,0-3.84,2.43-4.05,4.26H401.539z"/>
	<path fill="#FFFFFF" d="M407.359,365.01c0-1.71-0.031-3.18-0.121-4.53h2.311l0.12,2.88h0.09c0.66-1.95,2.28-3.18,4.05-3.18
		c0.271,0,0.48,0.03,0.723,0.06v2.49c-0.271-0.06-0.541-0.06-0.9-0.06c-1.859,0-3.18,1.38-3.54,3.36
		c-0.06,0.36-0.091,0.81-0.091,1.23V375h-2.639L407.359,365.01L407.359,365.01z"/>
	<path fill="#FFFFFF" d="M418.879,360.48l3.149,8.58c0.358,0.96,0.72,2.1,0.96,2.97h0.061c0.271-0.87,0.569-1.98,0.93-3.03
		l2.881-8.52h2.791l-3.963,10.35c-1.889,4.98-3.18,7.5-4.979,9.09c-1.32,1.11-2.58,1.56-3.24,1.68l-0.66-2.19
		c0.66-0.21,1.529-0.63,2.312-1.29c0.72-0.57,1.591-1.59,2.22-2.94c0.121-0.27,0.211-0.48,0.211-0.63c0-0.15-0.061-0.36-0.211-0.69
		L416,360.481L418.879,360.48L418.879,360.48z"/>
	<path fill="#FFFFFF" d="M438.049,372.33c0.811,0.48,2.189,1.02,3.51,1.02c1.891,0,2.789-0.93,2.789-2.16
		c0-1.26-0.75-1.92-2.67-2.64c-2.64-0.96-3.869-2.37-3.869-4.11c0-2.34,1.922-4.26,5.012-4.26c1.47,0,2.76,0.39,3.539,0.9
		L445.73,363c-0.57-0.36-1.621-0.87-2.973-0.87c-1.56,0-2.398,0.9-2.398,1.98c0,1.2,0.841,1.74,2.729,2.49
		c2.49,0.93,3.812,2.189,3.812,4.35c0,2.58-2.013,4.38-5.4,4.38c-1.59,0-3.061-0.42-4.08-1.02L438.049,372.33z"/>
	<path fill="#FFFFFF" d="M451.758,368.22c0.062,3.57,2.312,5.04,4.98,5.04c1.89,0,3.06-0.33,4.02-0.75l0.48,1.89
		c-0.933,0.42-2.551,0.93-4.86,0.93c-4.47,0-7.14-2.97-7.14-7.35s2.58-7.8,6.81-7.8c4.771,0,5.999,4.14,5.999,6.81
		c0,0.54-0.029,0.93-0.09,1.23H451.758L451.758,368.22z M459.498,366.331c0.029-1.65-0.69-4.26-3.66-4.26
		c-2.699,0-3.84,2.43-4.05,4.26H459.498z"/>
	<path fill="#FFFFFF" d="M465.317,365.01c0-1.71-0.03-3.18-0.12-4.53h2.311l0.119,2.88h0.09c0.66-1.95,2.28-3.18,4.051-3.18
		c0.271,0,0.479,0.03,0.721,0.06v2.49c-0.271-0.06-0.539-0.06-0.899-0.06c-1.86,0-3.18,1.38-3.54,3.36
		c-0.06,0.36-0.09,0.81-0.09,1.23V375h-2.64L465.317,365.01L465.317,365.01z"/>
	<path fill="#FFFFFF" d="M476.897,360.48l2.85,8.13c0.479,1.35,0.87,2.55,1.17,3.75h0.091c0.33-1.2,0.75-2.4,1.229-3.75l2.817-8.13
		h2.762L482.117,375h-2.521l-5.52-14.52H476.897z"/>
	<path fill="#FFFFFF" d="M493.247,356.401c0,0.9-0.63,1.62-1.681,1.62c-0.959,0-1.592-0.72-1.592-1.62s0.66-1.65,1.65-1.65
		C492.587,354.751,493.247,355.471,493.247,356.401z M490.307,375v-14.52h2.643V375H490.307z"/>
	<path fill="#FFFFFF" d="M507.676,374.49c-0.688,0.33-2.219,0.84-4.17,0.84c-4.379,0-7.229-2.97-7.229-7.41
		c0-4.47,3.059-7.74,7.799-7.74c1.561,0,2.938,0.39,3.66,0.78l-0.602,2.01c-0.631-0.33-1.621-0.69-3.061-0.69
		c-3.33,0-5.129,2.49-5.129,5.49c0,3.36,2.158,5.43,5.039,5.43c1.5,0,2.488-0.36,3.238-0.69L507.676,374.49z"/>
	<path fill="#FFFFFF" d="M512.057,368.22c0.062,3.57,2.312,5.04,4.98,5.04c1.89,0,3.06-0.33,4.02-0.75l0.48,1.89
		c-0.932,0.42-2.551,0.93-4.86,0.93c-4.47,0-7.14-2.97-7.14-7.35s2.58-7.8,6.81-7.8c4.771,0,5.999,4.14,5.999,6.81
		c0,0.54-0.027,0.93-0.09,1.23H512.057L512.057,368.22z M519.797,366.331c0.029-1.65-0.688-4.26-3.66-4.26
		c-2.697,0-3.84,2.43-4.05,4.26H519.797z"/>
	<path fill="#FFFFFF" d="M532.246,375v-12.509h-2.01v-2.01h2.01v-0.69c0-2.04,0.479-3.9,1.68-5.07c0.99-0.96,2.312-1.35,3.54-1.35
		c0.96,0,1.739,0.21,2.25,0.42l-0.36,2.04c-0.39-0.18-0.898-0.33-1.68-0.33c-2.25,0-2.82,1.95-2.82,4.2v0.78h3.512v2.01h-3.512V375
		H532.246z"/>
	<path fill="#FFFFFF" d="M553.486,367.62c0,5.37-3.75,7.71-7.23,7.71c-3.897,0-6.959-2.88-6.959-7.47c0-4.83,3.209-7.68,7.199-7.68
		C550.666,360.181,553.486,363.21,553.486,367.62z M541.996,367.771c0,3.18,1.801,5.58,4.381,5.58c2.52,0,4.409-2.37,4.409-5.64
		c0-2.46-1.229-5.55-4.352-5.55C543.347,362.161,541.996,365.041,541.996,367.771z"/>
	<path fill="#FFFFFF" d="M556.816,365.01c0-1.71-0.029-3.18-0.12-4.53h2.31l0.121,2.88h0.09c0.66-1.95,2.279-3.18,4.049-3.18
		c0.271,0,0.48,0.03,0.723,0.06v2.49c-0.271-0.06-0.54-0.06-0.9-0.06c-1.859,0-3.18,1.38-3.539,3.36
		c-0.061,0.36-0.091,0.81-0.091,1.23V375h-2.64L556.816,365.01L556.816,365.01z"/>
	<path fill="#FFFFFF" d="M54.699,408.33c0.81,0.479,2.19,1.02,3.51,1.02c1.89,0,2.79-0.93,2.79-2.158c0-1.262-0.75-1.922-2.67-2.642
		c-2.64-0.96-3.87-2.37-3.87-4.108c0-2.342,1.92-4.262,5.01-4.262c1.47,0,2.76,0.392,3.54,0.9l-0.63,1.92
		c-0.57-0.36-1.62-0.87-2.97-0.87c-1.56,0-2.4,0.9-2.4,1.98c0,1.198,0.84,1.738,2.73,2.488c2.49,0.932,3.81,2.189,3.81,4.352
		c0,2.58-2.01,4.38-5.4,4.38c-1.59,0-3.06-0.42-4.08-1.021L54.699,408.33z"/>
	<path fill="#FFFFFF" d="M70.119,393.001v3.479h3.78v2.01h-3.78v7.83c0,1.8,0.51,2.818,1.98,2.818c0.72,0,1.14-0.06,1.53-0.18
		l0.12,2.01c-0.51,0.182-1.32,0.36-2.34,0.36c-1.23,0-2.22-0.42-2.85-1.11c-0.72-0.81-1.02-2.1-1.02-3.81v-7.919h-2.25v-2.01h2.25
		v-2.701L70.119,393.001z"/>
	<path fill="#FFFFFF" d="M89.018,407.01c0,1.53,0.03,2.852,0.12,3.99h-2.34l-0.15-2.37h-0.06c-0.66,1.17-2.22,2.7-4.8,2.7
		c-2.28,0-5.01-1.29-5.01-6.36v-8.488h2.64v8.01c0,2.76,0.87,4.648,3.24,4.648c1.77,0,3-1.229,3.48-2.43
		c0.15-0.36,0.24-0.84,0.24-1.35v-8.88h2.64V407.01z"/>
	<path fill="#FFFFFF" d="M105.908,389.701v17.549c0,1.29,0.06,2.76,0.12,3.75h-2.34l-0.12-2.52h-0.09
		c-0.78,1.618-2.52,2.85-4.89,2.85c-3.51,0-6.24-2.97-6.24-7.38c-0.03-4.83,3-7.771,6.51-7.771c2.25,0,3.72,1.052,4.379,2.19h0.06
		v-8.67L105.908,389.701L105.908,389.701z M103.298,402.39c0-0.33-0.03-0.778-0.12-1.108c-0.39-1.65-1.83-3.03-3.81-3.03
		c-2.73,0-4.35,2.4-4.35,5.58c0,2.938,1.47,5.37,4.29,5.37c1.77,0,3.39-1.2,3.87-3.15c0.09-0.358,0.12-0.72,0.12-1.14V402.39z"/>
	<path fill="#FFFFFF" d="M111.788,404.22c0.06,3.57,2.31,5.04,4.98,5.04c1.89,0,3.06-0.33,4.02-0.75l0.48,1.892
		c-0.93,0.42-2.55,0.93-4.86,0.93c-4.47,0-7.14-2.97-7.14-7.35c0-4.382,2.58-7.802,6.81-7.802c4.77,0,6,4.142,6,6.812
		c0,0.54-0.03,0.93-0.09,1.229H111.788L111.788,404.22z M119.528,402.331c0.03-1.65-0.69-4.26-3.66-4.26c-2.7,0-3.84,2.43-4.05,4.26
		H119.528z"/>
	<path fill="#FFFFFF" d="M125.348,400.411c0-1.53-0.03-2.73-0.12-3.93h2.34l0.15,2.398h0.06c0.72-1.35,2.4-2.7,4.8-2.7
		c2.01,0,5.13,1.2,5.13,6.182V411h-2.64v-8.37c0-2.34-0.87-4.29-3.36-4.29c-1.71,0-3.06,1.23-3.54,2.7
		c-0.12,0.33-0.18,0.78-0.18,1.229V411h-2.64V400.411z"/>
	<path fill="#FFFFFF" d="M145.058,393.001v3.479h3.78v2.01h-3.78v7.83c0,1.8,0.51,2.818,1.98,2.818c0.72,0,1.14-0.06,1.53-0.18
		l0.12,2.01c-0.51,0.182-1.32,0.36-2.34,0.36c-1.23,0-2.22-0.42-2.85-1.11c-0.72-0.81-1.02-2.1-1.02-3.81v-7.919h-2.25v-2.01h2.25
		v-2.701L145.058,393.001z"/>
	<path fill="#FFFFFF" d="M151.448,408.33c0.81,0.479,2.19,1.02,3.51,1.02c1.89,0,2.79-0.93,2.79-2.158
		c0-1.262-0.75-1.922-2.67-2.642c-2.64-0.96-3.87-2.37-3.87-4.108c0-2.342,1.92-4.262,5.01-4.262c1.47,0,2.76,0.392,3.54,0.9
		l-0.63,1.92c-0.57-0.36-1.62-0.87-2.97-0.87c-1.56,0-2.4,0.9-2.4,1.98c0,1.198,0.84,1.738,2.73,2.488
		c2.49,0.932,3.81,2.189,3.81,4.352c0,2.58-2.01,4.38-5.4,4.38c-1.59,0-3.06-0.42-4.08-1.021L151.448,408.33z"/>
	<path fill="#FFFFFF" d="M180.247,407.52c0,1.262,0.06,2.49,0.21,3.48h-2.37l-0.21-1.83h-0.09c-0.81,1.14-2.37,2.16-4.44,2.16
		c-2.94,0-4.44-2.07-4.44-4.17c0-3.51,3.12-5.43,8.73-5.4v-0.3c0-1.17-0.33-3.36-3.3-3.33c-1.38,0-2.79,0.392-3.81,1.08l-0.6-1.77
		c1.2-0.75,2.97-1.262,4.8-1.262c4.44,0,5.52,3.03,5.52,5.91V407.52z M177.697,403.59c-2.88-0.06-6.149,0.45-6.149,3.271
		c0,1.738,1.14,2.52,2.46,2.52c1.92,0,3.15-1.2,3.57-2.43c0.09-0.3,0.12-0.602,0.12-0.84v-2.521H177.697z"/>
	<path fill="#FFFFFF" d="M184.507,400.411c0-1.53-0.03-2.73-0.12-3.93h2.34l0.15,2.398h0.06c0.72-1.35,2.4-2.7,4.8-2.7
		c2.01,0,5.13,1.2,5.13,6.182V411h-2.64v-8.37c0-2.34-0.87-4.29-3.36-4.29c-1.71,0-3.06,1.23-3.54,2.7
		c-0.12,0.33-0.18,0.78-0.18,1.229V411h-2.64V400.411L184.507,400.411z"/>
	<path fill="#FFFFFF" d="M213.667,389.701v17.549c0,1.29,0.06,2.76,0.12,3.75h-2.34l-0.12-2.52h-0.09
		c-0.78,1.618-2.52,2.85-4.89,2.85c-3.51,0-6.24-2.97-6.24-7.38c-0.03-4.83,3-7.771,6.51-7.771c2.25,0,3.72,1.052,4.379,2.19h0.06
		v-8.67L213.667,389.701L213.667,389.701z M211.057,402.39c0-0.33-0.03-0.778-0.12-1.108c-0.39-1.65-1.83-3.03-3.81-3.03
		c-2.73,0-4.35,2.4-4.35,5.58c0,2.938,1.47,5.37,4.29,5.37c1.77,0,3.39-1.2,3.87-3.15c0.09-0.358,0.12-0.72,0.12-1.14V402.39
		L211.057,402.39z"/>
	<path fill="#FFFFFF" d="M227.616,393.001v3.479h3.78v2.01h-3.78v7.83c0,1.8,0.51,2.818,1.98,2.818c0.72,0,1.14-0.06,1.53-0.18
		l0.12,2.01c-0.51,0.182-1.32,0.36-2.34,0.36c-1.23,0-2.22-0.42-2.85-1.11c-0.72-0.81-1.02-2.1-1.02-3.81v-7.919h-2.25v-2.01h2.25
		v-2.701L227.616,393.001z"/>
	<path fill="#FFFFFF" d="M234.367,389.701h2.64v9.09h0.06c0.42-0.75,1.08-1.44,1.89-1.89c0.78-0.45,1.71-0.722,2.7-0.722
		c1.95,0,5.07,1.2,5.07,6.182V411h-2.64v-8.34c0-2.34-0.87-4.29-3.36-4.29c-1.71,0-3.03,1.2-3.54,2.61
		c-0.15,0.39-0.18,0.778-0.18,1.26V411h-2.64V389.701L234.367,389.701z"/>
	<path fill="#FFFFFF" d="M252.486,404.22c0.06,3.57,2.31,5.04,4.98,5.04c1.89,0,3.06-0.33,4.02-0.75l0.48,1.892
		c-0.93,0.42-2.55,0.93-4.86,0.93c-4.47,0-7.14-2.97-7.14-7.35c0-4.382,2.58-7.802,6.81-7.802c4.77,0,6,4.142,6,6.812
		c0,0.54-0.03,0.93-0.09,1.229H252.486L252.486,404.22z M260.226,402.331c0.03-1.65-0.69-4.26-3.66-4.26c-2.7,0-3.84,2.43-4.05,4.26
		H260.226z"/>
	<path fill="#FFFFFF" d="M272.046,408.33c0.81,0.479,2.19,1.02,3.51,1.02c1.89,0,2.79-0.93,2.79-2.158
		c0-1.262-0.75-1.922-2.67-2.642c-2.64-0.96-3.87-2.37-3.87-4.108c0-2.342,1.92-4.262,5.01-4.262c1.47,0,2.76,0.392,3.54,0.9
		l-0.63,1.92c-0.57-0.36-1.62-0.87-2.97-0.87c-1.56,0-2.4,0.9-2.4,1.98c0,1.198,0.84,1.738,2.73,2.488
		c2.49,0.932,3.81,2.189,3.81,4.352c0,2.58-2.01,4.38-5.4,4.38c-1.59,0-3.06-0.42-4.08-1.021L272.046,408.33z"/>
	<path fill="#FFFFFF" d="M296.435,407.01c0,1.53,0.03,2.852,0.12,3.99h-2.34l-0.15-2.37h-0.06c-0.66,1.17-2.22,2.7-4.8,2.7
		c-2.28,0-5.01-1.29-5.01-6.36v-8.488h2.64v8.01c0,2.76,0.87,4.648,3.24,4.648c1.77,0,3-1.229,3.48-2.43
		c0.15-0.36,0.24-0.84,0.24-1.35v-8.88h2.64V407.01L296.435,407.01z"/>
	<path fill="#FFFFFF" d="M300.815,401.01c0-1.71-0.03-3.18-0.12-4.528h2.31l0.12,2.88h0.09c0.66-1.95,2.28-3.182,4.05-3.182
		c0.271,0,0.48,0.03,0.722,0.062v2.49c-0.271-0.062-0.54-0.062-0.9-0.062c-1.86,0-3.18,1.38-3.54,3.36
		c-0.06,0.358-0.09,0.81-0.09,1.229V411h-2.64L300.815,401.01L300.815,401.01z"/>
	<path fill="#FFFFFF" d="M310.745,401.01c0-1.71-0.03-3.18-0.12-4.528h2.31l0.12,2.88h0.09c0.66-1.95,2.28-3.182,4.052-3.182
		c0.27,0,0.479,0.03,0.72,0.062v2.49c-0.271-0.062-0.54-0.062-0.9-0.062c-1.858,0-3.18,1.38-3.54,3.36
		c-0.06,0.358-0.09,0.81-0.09,1.229V411h-2.64L310.745,401.01L310.745,401.01z"/>
	<path fill="#FFFFFF" d="M333.395,403.62c0,5.37-3.75,7.71-7.229,7.71c-3.899,0-6.959-2.88-6.959-7.47c0-4.83,3.209-7.682,7.2-7.682
		C330.574,396.181,333.395,399.21,333.395,403.62z M321.905,403.771c0,3.18,1.8,5.578,4.38,5.578c2.52,0,4.41-2.368,4.41-5.64
		c0-2.46-1.23-5.55-4.352-5.55C323.256,398.161,321.905,401.041,321.905,403.771z"/>
	<path fill="#FFFFFF" d="M348.875,407.01c0,1.53,0.029,2.852,0.119,3.99h-2.34l-0.149-2.37h-0.06c-0.66,1.17-2.223,2.7-4.803,2.7
		c-2.277,0-5.01-1.29-5.01-6.36v-8.488h2.643v8.01c0,2.76,0.867,4.648,3.237,4.648c1.771,0,3-1.229,3.479-2.43
		c0.148-0.36,0.24-0.84,0.24-1.35v-8.88h2.641L348.875,407.01L348.875,407.01z"/>
	<path fill="#FFFFFF" d="M353.255,400.411c0-1.53-0.03-2.73-0.12-3.93h2.34l0.15,2.398h0.06c0.722-1.35,2.399-2.7,4.802-2.7
		c2.01,0,5.13,1.2,5.13,6.182V411h-2.642v-8.37c0-2.34-0.868-4.29-3.357-4.29c-1.711,0-3.062,1.23-3.541,2.7
		c-0.119,0.33-0.182,0.78-0.182,1.229V411h-2.64V400.411L353.255,400.411z"/>
	<path fill="#FFFFFF" d="M382.414,389.701v17.549c0,1.29,0.061,2.76,0.12,3.75h-2.34l-0.12-2.52h-0.09
		c-0.779,1.618-2.521,2.85-4.892,2.85c-3.511,0-6.237-2.97-6.237-7.38c-0.031-4.83,2.997-7.771,6.51-7.771
		c2.249,0,3.719,1.052,4.379,2.19h0.061v-8.67L382.414,389.701L382.414,389.701z M379.805,402.39c0-0.33-0.028-0.778-0.12-1.108
		c-0.39-1.65-1.828-3.03-3.81-3.03c-2.73,0-4.35,2.4-4.35,5.58c0,2.938,1.469,5.37,4.289,5.37c1.77,0,3.391-1.2,3.868-3.15
		c0.092-0.358,0.12-0.72,0.12-1.14L379.805,402.39L379.805,402.39z"/>
	<path fill="#FFFFFF" d="M389.765,392.401c0,0.9-0.63,1.62-1.681,1.62c-0.959,0-1.59-0.72-1.59-1.62s0.66-1.65,1.648-1.65
		C389.104,390.751,389.765,391.471,389.765,392.401z M386.824,411v-14.52h2.641V411H386.824z"/>
	<path fill="#FFFFFF" d="M393.845,400.411c0-1.53-0.028-2.73-0.12-3.93h2.342l0.148,2.398h0.062c0.72-1.35,2.397-2.7,4.8-2.7
		c2.01,0,5.13,1.2,5.13,6.182V411h-2.64v-8.37c0-2.34-0.87-4.29-3.359-4.29c-1.711,0-3.062,1.23-3.541,2.7
		c-0.119,0.33-0.18,0.78-0.18,1.229V411h-2.642V400.411L393.845,400.411z"/>
	<path fill="#FFFFFF" d="M422.914,408.87c0,3.36-0.69,5.37-2.07,6.66c-1.438,1.29-3.479,1.738-5.311,1.738
		c-1.739,0-3.659-0.42-4.829-1.198l0.66-2.04c0.96,0.63,2.46,1.17,4.26,1.17c2.7,0,4.68-1.41,4.68-5.102v-1.59h-0.06
		c-0.78,1.352-2.37,2.432-4.62,2.432c-3.601,0-6.18-3.062-6.18-7.08c0-4.92,3.21-7.682,6.567-7.682c2.521,0,3.87,1.29,4.529,2.49
		h0.061l0.092-2.188h2.34c-0.09,1.02-0.119,2.22-0.119,3.96V408.87z M420.273,402.21c0-0.45-0.029-0.84-0.15-1.17
		c-0.479-1.56-1.739-2.82-3.689-2.82c-2.52,0-4.317,2.13-4.317,5.49c0,2.85,1.47,5.22,4.29,5.22c1.647,0,3.119-1.02,3.66-2.7
		c0.147-0.448,0.209-0.96,0.209-1.408L420.273,402.21L420.273,402.21z"/>
	<path fill="#FFFFFF" d="M443.973,410.49c-0.688,0.33-2.219,0.84-4.17,0.84c-4.379,0-7.229-2.97-7.229-7.41
		c0-4.47,3.059-7.74,7.799-7.74c1.561,0,2.938,0.392,3.66,0.78l-0.602,2.01c-0.631-0.33-1.621-0.688-3.061-0.688
		c-3.33,0-5.129,2.488-5.129,5.488c0,3.36,2.159,5.432,5.039,5.432c1.5,0,2.488-0.36,3.238-0.69L443.973,410.49z"/>
	<path fill="#FFFFFF" d="M460.023,403.62c0,5.37-3.75,7.71-7.23,7.71c-3.899,0-6.959-2.88-6.959-7.47
		c0-4.83,3.209-7.682,7.199-7.682C457.203,396.181,460.023,399.21,460.023,403.62z M448.533,403.771c0,3.18,1.801,5.578,4.381,5.578
		c2.52,0,4.409-2.368,4.409-5.64c0-2.46-1.229-5.55-4.352-5.55C449.884,398.161,448.533,401.041,448.533,403.771z"/>
	<path fill="#FFFFFF" d="M463.354,400.411c0-1.53-0.061-2.73-0.118-3.93h2.31l0.121,2.368h0.09c0.812-1.38,2.159-2.67,4.59-2.67
		c1.949,0,3.449,1.2,4.079,2.91h0.062c0.449-0.84,1.051-1.438,1.648-1.89c0.87-0.66,1.801-1.021,3.182-1.021
		c1.948,0,4.801,1.262,4.801,6.302V411h-2.58v-8.189c0-2.818-1.051-4.47-3.15-4.47c-1.527,0-2.67,1.11-3.148,2.37
		c-0.119,0.39-0.209,0.84-0.209,1.32V411h-2.58v-8.7c0-2.31-1.021-3.96-3.03-3.96c-1.62,0-2.85,1.32-3.27,2.642
		c-0.15,0.358-0.211,0.84-0.211,1.288V411h-2.579v-10.589H463.354z"/>
	<path fill="#FFFFFF" d="M488.373,400.411c0-1.53-0.062-2.73-0.119-3.93h2.312l0.118,2.368h0.092c0.811-1.38,2.158-2.67,4.59-2.67
		c1.947,0,3.447,1.2,4.08,2.91h0.06c0.45-0.84,1.05-1.438,1.649-1.89c0.871-0.66,1.801-1.021,3.181-1.021
		c1.95,0,4.8,1.262,4.8,6.302V411h-2.58v-8.189c0-2.818-1.05-4.47-3.148-4.47c-1.529,0-2.67,1.11-3.149,2.37
		c-0.12,0.39-0.21,0.84-0.21,1.32V411h-2.58v-8.7c0-2.31-1.02-3.96-3.028-3.96c-1.619,0-2.851,1.32-3.271,2.642
		c-0.15,0.358-0.211,0.84-0.211,1.288V411h-2.58v-10.589H488.373z"/>
	<path fill="#FFFFFF" d="M525.543,407.01c0,1.53,0.03,2.852,0.12,3.99h-2.34l-0.149-2.37h-0.061c-0.66,1.17-2.223,2.7-4.8,2.7
		c-2.28,0-5.012-1.29-5.012-6.36v-8.488h2.642v8.01c0,2.76,0.87,4.648,3.238,4.648c1.771,0,3-1.229,3.479-2.43
		c0.147-0.36,0.24-0.84,0.24-1.35v-8.88h2.64L525.543,407.01L525.543,407.01z"/>
	<path fill="#FFFFFF" d="M529.924,400.411c0-1.53-0.031-2.73-0.121-3.93h2.34l0.15,2.398h0.062c0.72-1.35,2.397-2.7,4.799-2.7
		c2.011,0,5.131,1.2,5.131,6.182V411h-2.643v-8.37c0-2.34-0.867-4.29-3.357-4.29c-1.71,0-3.062,1.23-3.54,2.7
		c-0.12,0.33-0.181,0.78-0.181,1.229V411h-2.641V400.411L529.924,400.411z"/>
	<path fill="#FFFFFF" d="M549.514,392.401c0,0.9-0.631,1.62-1.681,1.62c-0.96,0-1.59-0.72-1.59-1.62s0.66-1.65,1.647-1.65
		C548.854,390.751,549.514,391.471,549.514,392.401z M546.573,411v-14.52h2.64V411H546.573z"/>
	<path fill="#FFFFFF" d="M556.771,393.001v3.479h3.779v2.01h-3.779v7.83c0,1.8,0.512,2.818,1.979,2.818
		c0.721,0,1.141-0.06,1.531-0.18l0.119,2.01c-0.512,0.182-1.32,0.36-2.342,0.36c-1.229,0-2.22-0.42-2.85-1.11
		c-0.721-0.81-1.02-2.1-1.02-3.81v-7.919h-2.25v-2.01h2.25v-2.701L556.771,393.001z"/>
	<path fill="#FFFFFF" d="M564.752,396.48l3.15,8.578c0.357,0.96,0.72,2.102,0.96,2.972h0.06c0.271-0.87,0.57-1.98,0.93-3.03
		l2.883-8.52h2.789l-3.959,10.35c-1.893,4.979-3.182,7.5-4.98,9.09c-1.32,1.11-2.58,1.562-3.24,1.68l-0.658-2.188
		c0.658-0.21,1.529-0.63,2.311-1.29c0.721-0.57,1.59-1.59,2.221-2.94c0.119-0.27,0.209-0.479,0.209-0.63
		c0-0.148-0.06-0.358-0.209-0.688l-5.34-13.379L564.752,396.48L564.752,396.48z"/>
	<path fill="#FFFFFF" d="M576.123,409.44c0-1.08,0.75-1.892,1.799-1.892c1.051,0,1.771,0.78,1.771,1.892
		c0,1.078-0.722,1.89-1.83,1.89C576.842,411.33,576.123,410.52,576.123,409.44z"/>
	<path fill="#FFFFFF" d="M43.57,426.781h2.64v13.527c0,5.37-2.64,7.021-6.12,7.021c-0.99,0-2.16-0.21-2.79-0.48l0.36-2.13
		c0.54,0.21,1.32,0.392,2.22,0.392c2.34,0,3.69-1.052,3.69-5.012V426.781z"/>
	<path fill="#FFFFFF" d="M62.62,443.01c0,1.53,0.03,2.852,0.12,3.99H60.4l-0.15-2.37h-0.06c-0.66,1.17-2.22,2.7-4.8,2.7
		c-2.28,0-5.01-1.29-5.01-6.36v-8.488h2.64v8.01c0,2.76,0.87,4.648,3.24,4.648c1.77,0,3-1.229,3.48-2.43
		c0.15-0.36,0.24-0.84,0.24-1.35v-8.88h2.64V443.01z"/>
	<path fill="#FFFFFF" d="M66.641,444.33c0.81,0.479,2.19,1.02,3.51,1.02c1.89,0,2.79-0.93,2.79-2.158c0-1.262-0.75-1.922-2.67-2.642
		c-2.64-0.96-3.87-2.37-3.87-4.108c0-2.342,1.92-4.262,5.01-4.262c1.47,0,2.76,0.392,3.54,0.9L74.32,435
		c-0.57-0.36-1.62-0.87-2.97-0.87c-1.56,0-2.4,0.9-2.4,1.98c0,1.198,0.84,1.738,2.73,2.488c2.49,0.932,3.81,2.189,3.81,4.352
		c0,2.58-2.01,4.38-5.4,4.38c-1.59,0-3.06-0.42-4.08-1.021L66.641,444.33z"/>
	<path fill="#FFFFFF" d="M82.06,429.001v3.479h3.78v2.01h-3.78v7.83c0,1.8,0.51,2.818,1.98,2.818c0.72,0,1.14-0.06,1.53-0.18
		l0.12,2.01c-0.51,0.182-1.32,0.36-2.34,0.36c-1.23,0-2.22-0.42-2.85-1.11c-0.72-0.81-1.02-2.1-1.02-3.81v-7.919h-2.25v-2.01h2.25
		v-2.7L82.06,429.001z"/>
	<path fill="#FFFFFF" d="M98.35,429.001v3.479h3.78v2.01h-3.78v7.83c0,1.8,0.51,2.818,1.98,2.818c0.72,0,1.14-0.06,1.53-0.18
		l0.12,2.01c-0.51,0.182-1.32,0.36-2.34,0.36c-1.23,0-2.22-0.42-2.85-1.11c-0.72-0.81-1.02-2.1-1.02-3.81v-7.919h-2.25v-2.01h2.25
		v-2.7L98.35,429.001z"/>
	<path fill="#FFFFFF" d="M115.299,443.52c0,1.262,0.06,2.49,0.21,3.48h-2.37l-0.21-1.83h-0.09c-0.81,1.14-2.37,2.16-4.44,2.16
		c-2.94,0-4.44-2.07-4.44-4.17c0-3.51,3.12-5.43,8.73-5.4v-0.3c0-1.17-0.33-3.36-3.3-3.33c-1.38,0-2.79,0.392-3.81,1.08l-0.6-1.77
		c1.2-0.75,2.97-1.262,4.8-1.262c4.44,0,5.52,3.03,5.52,5.91V443.52z M112.75,439.59c-2.88-0.06-6.15,0.45-6.15,3.271
		c0,1.738,1.14,2.52,2.46,2.52c1.92,0,3.15-1.2,3.57-2.43c0.09-0.3,0.12-0.602,0.12-0.84V439.59z"/>
	<path fill="#FFFFFF" d="M119.56,437.22c0-1.858-0.06-3.358-0.12-4.738h2.34l0.15,2.488h0.06c1.05-1.77,2.79-2.79,5.16-2.79
		c3.54,0,6.18,2.972,6.18,7.352c0,5.22-3.21,7.8-6.63,7.8c-1.92,0-3.6-0.84-4.47-2.28h-0.06v7.892h-2.61V437.22z M122.169,441.09
		c0,0.392,0.03,0.75,0.12,1.08c0.48,1.83,2.07,3.09,3.96,3.09c2.79,0,4.41-2.278,4.41-5.608c0-2.882-1.53-5.37-4.32-5.37
		c-1.8,0-3.51,1.26-3.99,3.238c-0.09,0.33-0.18,0.722-0.18,1.052V441.09z"/>
	<path fill="#FFFFFF" d="M156.128,439.62c0,5.37-3.75,7.71-7.23,7.71c-3.9,0-6.959-2.88-6.959-7.47c0-4.83,3.209-7.682,7.2-7.682
		C153.308,432.181,156.128,435.21,156.128,439.62z M144.639,439.771c0,3.18,1.8,5.578,4.38,5.578c2.52,0,4.41-2.368,4.41-5.64
		c0-2.46-1.23-5.55-4.35-5.55C145.989,434.161,144.639,437.041,144.639,439.771z"/>
	<path fill="#FFFFFF" d="M159.458,436.411c0-1.53-0.03-2.73-0.12-3.93h2.34l0.15,2.398h0.06c0.72-1.35,2.4-2.7,4.8-2.7
		c2.01,0,5.13,1.2,5.13,6.182V447h-2.64v-8.37c0-2.34-0.87-4.29-3.36-4.29c-1.71,0-3.06,1.23-3.54,2.7
		c-0.12,0.33-0.18,0.78-0.18,1.229V447h-2.64V436.411L159.458,436.411z"/>
	<path fill="#FFFFFF" d="M192.667,443.52c0,1.262,0.06,2.49,0.21,3.48h-2.37l-0.21-1.83h-0.09c-0.81,1.14-2.37,2.16-4.44,2.16
		c-2.94,0-4.44-2.07-4.44-4.17c0-3.51,3.12-5.43,8.73-5.4v-0.3c0-1.17-0.33-3.36-3.3-3.33c-1.38,0-2.79,0.392-3.81,1.08l-0.6-1.77
		c1.2-0.75,2.97-1.262,4.8-1.262c4.44,0,5.52,3.03,5.52,5.91V443.52z M190.118,439.59c-2.88-0.06-6.15,0.45-6.15,3.271
		c0,1.738,1.14,2.52,2.46,2.52c1.92,0,3.15-1.2,3.57-2.43c0.09-0.3,0.12-0.602,0.12-0.84V439.59L190.118,439.59z"/>
	<path fill="#FFFFFF" d="M196.928,436.411c0-1.53-0.03-2.73-0.12-3.93h2.34l0.15,2.398h0.06c0.72-1.35,2.4-2.7,4.8-2.7
		c2.01,0,5.13,1.2,5.13,6.182V447h-2.64v-8.37c0-2.34-0.87-4.29-3.36-4.29c-1.71,0-3.06,1.23-3.54,2.7
		c-0.12,0.33-0.18,0.78-0.18,1.229V447h-2.64V436.411L196.928,436.411z"/>
	<path fill="#FFFFFF" d="M222.877,428.401c0,0.898-0.63,1.62-1.68,1.62c-0.96,0-1.59-0.722-1.59-1.62c0-0.9,0.66-1.65,1.65-1.65
		C222.217,426.751,222.877,427.471,222.877,428.401z M219.938,447v-14.52h2.64V447H219.938z"/>
	<path fill="#FFFFFF" d="M237.307,446.49c-0.69,0.33-2.22,0.84-4.17,0.84c-4.38,0-7.229-2.97-7.229-7.41
		c0-4.47,3.06-7.74,7.799-7.74c1.56,0,2.94,0.392,3.66,0.78l-0.6,2.01c-0.63-0.33-1.62-0.688-3.06-0.688
		c-3.33,0-5.129,2.488-5.129,5.488c0,3.36,2.16,5.432,5.04,5.432c1.5,0,2.49-0.36,3.24-0.69L237.307,446.49z"/>
	<path fill="#FFFFFF" d="M253.357,439.62c0,5.37-3.75,7.71-7.23,7.71c-3.9,0-6.959-2.88-6.959-7.47c0-4.83,3.209-7.682,7.2-7.682
		C250.537,432.181,253.357,435.21,253.357,439.62z M241.867,439.771c0,3.18,1.8,5.578,4.38,5.578c2.52,0,4.41-2.368,4.41-5.64
		c0-2.46-1.23-5.55-4.35-5.55C243.217,434.161,241.867,437.041,241.867,439.771z"/>
	<path fill="#FFFFFF" d="M256.687,436.411c0-1.53-0.03-2.73-0.12-3.93h2.34l0.15,2.398h0.06c0.72-1.35,2.4-2.7,4.8-2.7
		c2.01,0,5.13,1.2,5.13,6.182V447h-2.64v-8.37c0-2.34-0.87-4.29-3.36-4.29c-1.71,0-3.06,1.23-3.54,2.7
		c-0.12,0.33-0.18,0.78-0.18,1.229V447h-2.64V436.411L256.687,436.411z"/>
	<path fill="#FFFFFF" d="M282.876,429.001v3.479h3.78v2.01h-3.78v7.83c0,1.8,0.51,2.818,1.98,2.818c0.72,0,1.14-0.06,1.53-0.18
		l0.12,2.01c-0.51,0.182-1.32,0.36-2.34,0.36c-1.23,0-2.22-0.42-2.85-1.11c-0.72-0.81-1.02-2.1-1.02-3.81v-7.919h-2.25v-2.01h2.25
		v-2.7L282.876,429.001z"/>
	<path fill="#FFFFFF" d="M302.586,439.62c0,5.37-3.75,7.71-7.23,7.71c-3.9,0-6.959-2.88-6.959-7.47c0-4.83,3.209-7.682,7.2-7.682
		C299.766,432.181,302.586,435.21,302.586,439.62z M291.096,439.771c0,3.18,1.8,5.578,4.38,5.578c2.52,0,4.41-2.368,4.41-5.64
		c0-2.46-1.23-5.55-4.35-5.55C292.446,434.161,291.096,437.041,291.096,439.771z"/>
	<path fill="#FFFFFF" d="M325.416,439.62c0,5.37-3.75,7.71-7.23,7.71c-3.898,0-6.959-2.88-6.959-7.47c0-4.83,3.209-7.682,7.2-7.682
		C322.596,432.181,325.416,435.21,325.416,439.62z M313.926,439.771c0,3.18,1.8,5.578,4.38,5.578c2.521,0,4.409-2.368,4.409-5.64
		c0-2.46-1.229-5.55-4.349-5.55C315.276,434.161,313.926,437.041,313.926,439.771z"/>
	<path fill="#FFFFFF" d="M328.746,437.01c0-1.71-0.029-3.18-0.12-4.528h2.31l0.121,2.88h0.092c0.658-1.95,2.277-3.182,4.049-3.182
		c0.271,0,0.479,0.03,0.721,0.062v2.49c-0.27-0.062-0.54-0.062-0.9-0.062c-1.857,0-3.18,1.38-3.537,3.36
		c-0.062,0.358-0.093,0.81-0.093,1.229V447h-2.64L328.746,437.01L328.746,437.01z"/>
	<path fill="#FFFFFF" d="M350.766,425.701v17.549c0,1.29,0.062,2.76,0.119,3.75h-2.34l-0.119-2.52h-0.09
		c-0.78,1.618-2.521,2.85-4.891,2.85c-3.512,0-6.239-2.97-6.239-7.38c-0.03-4.83,2.999-7.771,6.51-7.771
		c2.249,0,3.72,1.052,4.38,2.19h0.062v-8.67L350.766,425.701L350.766,425.701z M348.155,438.39c0-0.33-0.03-0.778-0.12-1.108
		c-0.392-1.65-1.83-3.03-3.812-3.03c-2.729,0-4.35,2.4-4.35,5.58c0,2.938,1.47,5.37,4.29,5.37c1.77,0,3.39-1.2,3.869-3.15
		c0.09-0.358,0.12-0.72,0.12-1.14L348.155,438.39L348.155,438.39z"/>
	<path fill="#FFFFFF" d="M356.646,440.22c0.06,3.57,2.31,5.04,4.979,5.04c1.891,0,3.061-0.33,4.021-0.75l0.479,1.892
		c-0.93,0.42-2.55,0.93-4.859,0.93c-4.47,0-7.14-2.97-7.14-7.35c0-4.382,2.579-7.802,6.81-7.802c4.771,0,6,4.142,6,6.812
		c0,0.54-0.028,0.93-0.09,1.229H356.646L356.646,440.22z M364.385,438.331c0.031-1.65-0.688-4.26-3.659-4.26
		c-2.698,0-3.84,2.43-4.05,4.26H364.385z"/>
	<path fill="#FFFFFF" d="M370.205,437.01c0-1.71-0.029-3.18-0.119-4.528h2.312l0.118,2.88h0.092c0.658-1.95,2.277-3.182,4.05-3.182
		c0.271,0,0.479,0.03,0.72,0.062v2.49c-0.27-0.062-0.539-0.062-0.9-0.062c-1.857,0-3.18,1.38-3.539,3.36
		c-0.061,0.358-0.09,0.81-0.09,1.229V447h-2.641L370.205,437.01L370.205,437.01z"/>
	<path fill="#FFFFFF" d="M376.716,450.72c0.66-1.8,1.47-5.01,1.8-7.2l2.939-0.3c-0.719,2.55-2.039,5.88-2.879,7.29L376.716,450.72z"
		/>
	<path fill="#FFFFFF" d="M392.045,432.48l1.95,7.38c0.39,1.62,0.78,3.12,1.05,4.62h0.09c0.33-1.472,0.812-3.03,1.29-4.592
		l2.37-7.408h2.22l2.25,7.26c0.54,1.74,0.96,3.27,1.29,4.74h0.09c0.24-1.472,0.632-3,1.109-4.709l2.07-7.29h2.607l-4.68,14.52
		h-2.397l-2.222-6.93c-0.51-1.62-0.93-3.062-1.29-4.771h-0.06c-0.36,1.74-0.812,3.24-1.32,4.8l-2.34,6.9h-2.4l-4.379-14.52H392.045
		L392.045,432.48z"/>
	<path fill="#FFFFFF" d="M414.244,440.22c0.061,3.57,2.311,5.04,4.979,5.04c1.893,0,3.062-0.33,4.021-0.75l0.479,1.892
		c-0.93,0.42-2.551,0.93-4.857,0.93c-4.473,0-7.143-2.97-7.143-7.35c0-4.382,2.58-7.802,6.812-7.802c4.77,0,5.999,4.142,5.999,6.812
		c0,0.54-0.03,0.93-0.09,1.229H414.244L414.244,440.22z M421.984,438.331c0.028-1.65-0.689-4.26-3.66-4.26
		c-2.699,0-3.84,2.43-4.049,4.26H421.984z"/>
	<path fill="#FFFFFF" d="M435.214,432.48l1.95,7.38c0.39,1.62,0.779,3.12,1.05,4.62h0.09c0.33-1.472,0.812-3.03,1.29-4.592
		l2.37-7.408h2.22l2.25,7.26c0.54,1.74,0.96,3.27,1.29,4.74h0.092c0.237-1.472,0.63-3,1.108-4.709l2.069-7.29h2.608l-4.68,14.52
		h-2.398l-2.222-6.93c-0.511-1.62-0.931-3.062-1.29-4.771h-0.061c-0.359,1.74-0.812,3.24-1.319,4.8l-2.34,6.9h-2.399l-4.381-14.52
		H435.214L435.214,432.48z"/>
	<path fill="#FFFFFF" d="M459.184,428.401c0,0.898-0.629,1.62-1.68,1.62c-0.96,0-1.59-0.722-1.59-1.62c0-0.9,0.66-1.65,1.65-1.65
		C458.523,426.751,459.184,427.471,459.184,428.401z M456.244,447v-14.52h2.64V447H456.244z"/>
	<path fill="#FFFFFF" d="M463.264,425.701h2.642V447h-2.642V425.701z"/>
	<path fill="#FFFFFF" d="M470.344,425.701h2.642V447h-2.642V425.701z"/>
	<path fill="#FFFFFF" d="M483.783,437.22c0-1.858-0.062-3.358-0.12-4.738h2.34l0.149,2.488h0.061c1.051-1.77,2.79-2.79,5.16-2.79
		c3.539,0,6.18,2.972,6.18,7.352c0,5.22-3.21,7.8-6.63,7.8c-1.92,0-3.6-0.84-4.47-2.28h-0.062v7.892h-2.607V437.22L483.783,437.22z
		 M486.393,441.09c0,0.392,0.03,0.75,0.121,1.08c0.479,1.83,2.069,3.09,3.959,3.09c2.79,0,4.41-2.278,4.41-5.608
		c0-2.882-1.527-5.37-4.318-5.37c-1.801,0-3.512,1.26-3.989,3.238c-0.091,0.33-0.183,0.722-0.183,1.052V441.09z"/>
	<path fill="#FFFFFF" d="M503.793,428.401c0,0.898-0.631,1.62-1.681,1.62c-0.96,0-1.59-0.722-1.59-1.62c0-0.9,0.658-1.65,1.647-1.65
		C503.133,426.751,503.793,427.471,503.793,428.401z M500.853,447v-14.52h2.642V447H500.853z"/>
	<path fill="#FFFFFF" d="M518.223,446.49c-0.688,0.33-2.221,0.84-4.17,0.84c-4.381,0-7.229-2.97-7.229-7.41
		c0-4.47,3.061-7.74,7.8-7.74c1.56,0,2.94,0.392,3.66,0.78l-0.603,2.01c-0.629-0.33-1.619-0.688-3.06-0.688
		c-3.329,0-5.13,2.488-5.13,5.488c0,3.36,2.16,5.432,5.04,5.432c1.5,0,2.489-0.36,3.239-0.69L518.223,446.49z"/>
	<path fill="#FFFFFF" d="M523.922,439.14h0.062c0.357-0.51,0.84-1.14,1.26-1.648l4.29-5.01h3.147l-5.58,5.97l6.393,8.55h-3.24
		l-4.979-6.96l-1.352,1.5V447h-2.608v-21.299h2.608L523.922,439.14L523.922,439.14z"/>
	<path fill="#FFFFFF" d="M544.682,428.401c0,0.898-0.629,1.62-1.68,1.62c-0.96,0-1.59-0.722-1.59-1.62c0-0.9,0.66-1.65,1.65-1.65
		C544.021,426.751,544.682,427.471,544.682,428.401z M541.742,447v-14.52h2.64V447H541.742z"/>
	<path fill="#FFFFFF" d="M551.941,429.001v3.479h3.777v2.01h-3.777v7.83c0,1.8,0.51,2.818,1.979,2.818c0.72,0,1.14-0.06,1.529-0.18
		l0.12,2.01c-0.512,0.182-1.319,0.36-2.342,0.36c-1.229,0-2.22-0.42-2.85-1.11c-0.72-0.81-1.021-2.1-1.021-3.81v-7.919h-2.25v-2.01
		h2.25v-2.7L551.941,429.001z"/>
	<path fill="#FFFFFF" d="M577.201,443.01c0,1.53,0.029,2.852,0.119,3.99h-2.34l-0.149-2.37h-0.06c-0.66,1.17-2.223,2.7-4.803,2.7
		c-2.277,0-5.01-1.29-5.01-6.36v-8.488h2.641v8.01c0,2.76,0.869,4.648,3.239,4.648c1.771,0,3-1.229,3.479-2.43
		c0.148-0.36,0.238-0.84,0.238-1.35v-8.88h2.643L577.201,443.01L577.201,443.01z"/>
	<path fill="#FFFFFF" d="M581.581,437.22c0-1.858-0.06-3.358-0.12-4.738h2.34l0.15,2.488h0.06c1.05-1.77,2.79-2.79,5.16-2.79
		c3.54,0,6.18,2.972,6.18,7.352c0,5.22-3.21,7.8-6.63,7.8c-1.92,0-3.6-0.84-4.47-2.28h-0.06v7.892h-2.61V437.22L581.581,437.22z
		 M584.191,441.09c0,0.392,0.027,0.75,0.117,1.08c0.48,1.83,2.07,3.09,3.962,3.09c2.788,0,4.408-2.278,4.408-5.608
		c0-2.882-1.528-5.37-4.317-5.37c-1.803,0-3.512,1.26-3.99,3.238c-0.09,0.33-0.18,0.722-0.18,1.052V441.09L584.191,441.09z"/>
	<path fill="#FFFFFF" d="M99.593,479.52c0,1.262,0.06,2.49,0.21,3.48h-2.37l-0.21-1.83h-0.09c-0.81,1.141-2.37,2.16-4.44,2.16
		c-2.94,0-4.44-2.07-4.44-4.17c0-3.51,3.12-5.43,8.73-5.4v-0.3c0-1.17-0.33-3.36-3.3-3.33c-1.38,0-2.79,0.392-3.81,1.08l-0.6-1.77
		c1.2-0.75,2.97-1.262,4.8-1.262c4.44,0,5.52,3.03,5.52,5.91V479.52z M97.043,475.59c-2.88-0.06-6.15,0.45-6.15,3.271
		c0,1.737,1.14,2.52,2.46,2.52c1.92,0,3.15-1.2,3.57-2.43c0.09-0.3,0.12-0.602,0.12-0.84V475.59z"/>
	<path fill="#FFFFFF" d="M103.854,472.411c0-1.53-0.03-2.73-0.12-3.93h2.34l0.15,2.398h0.06c0.72-1.35,2.4-2.7,4.8-2.7
		c2.01,0,5.13,1.2,5.13,6.182V483h-2.64v-8.37c0-2.34-0.87-4.29-3.36-4.29c-1.71,0-3.06,1.23-3.54,2.7
		c-0.12,0.33-0.18,0.78-0.18,1.229V483h-2.64V472.411z"/>
	<path fill="#FFFFFF" d="M133.012,461.701v17.549c0,1.29,0.06,2.76,0.12,3.75h-2.34l-0.12-2.52h-0.09
		c-0.78,1.618-2.52,2.85-4.89,2.85c-3.51,0-6.24-2.97-6.24-7.38c-0.03-4.83,3-7.771,6.51-7.771c2.25,0,3.72,1.052,4.379,2.19h0.06
		v-8.67L133.012,461.701L133.012,461.701z M130.402,474.39c0-0.33-0.03-0.778-0.12-1.108c-0.39-1.65-1.83-3.03-3.81-3.03
		c-2.73,0-4.35,2.4-4.35,5.58c0,2.938,1.47,5.37,4.29,5.37c1.77,0,3.39-1.2,3.87-3.15c0.09-0.358,0.12-0.72,0.12-1.14V474.39z"/>
	<path fill="#FFFFFF" d="M156.292,461.701v17.549c0,1.29,0.06,2.76,0.12,3.75h-2.34l-0.12-2.52h-0.09
		c-0.78,1.618-2.52,2.85-4.89,2.85c-3.51,0-6.24-2.97-6.24-7.38c-0.03-4.83,3-7.771,6.51-7.771c2.25,0,3.72,1.052,4.379,2.19h0.06
		v-8.67L156.292,461.701L156.292,461.701z M153.682,474.39c0-0.33-0.03-0.778-0.12-1.108c-0.39-1.65-1.83-3.03-3.81-3.03
		c-2.73,0-4.35,2.4-4.35,5.58c0,2.938,1.47,5.37,4.29,5.37c1.77,0,3.39-1.2,3.87-3.15c0.09-0.358,0.12-0.72,0.12-1.14V474.39
		L153.682,474.39z"/>
	<path fill="#FFFFFF" d="M162.172,476.22c0.06,3.57,2.31,5.04,4.98,5.04c1.89,0,3.06-0.33,4.02-0.75l0.48,1.893
		c-0.93,0.42-2.55,0.93-4.86,0.93c-4.47,0-7.14-2.97-7.14-7.35c0-4.382,2.58-7.802,6.81-7.802c4.77,0,6,4.142,6,6.812
		c0,0.54-0.03,0.93-0.09,1.229L162.172,476.22L162.172,476.22z M169.912,474.331c0.03-1.65-0.69-4.26-3.66-4.26
		c-2.7,0-3.84,2.43-4.05,4.26H169.912z"/>
	<path fill="#FFFFFF" d="M175.732,461.701h2.64V483h-2.64V461.701z"/>
	<path fill="#FFFFFF" d="M185.752,464.401c0,0.898-0.63,1.62-1.68,1.62c-0.96,0-1.59-0.722-1.59-1.62c0-0.9,0.66-1.65,1.65-1.65
		C185.092,462.751,185.752,463.471,185.752,464.401z M182.812,483v-14.52h2.64V483H182.812z"/>
	<path fill="#FFFFFF" d="M190.852,468.48l2.85,8.13c0.48,1.35,0.87,2.55,1.17,3.75h0.09c0.33-1.2,0.75-2.4,1.23-3.75l2.82-8.13h2.76
		l-5.7,14.52h-2.52l-5.52-14.52H190.852z"/>
	<path fill="#FFFFFF" d="M205.432,476.22c0.06,3.57,2.31,5.04,4.98,5.04c1.89,0,3.06-0.33,4.02-0.75l0.48,1.893
		c-0.93,0.42-2.55,0.93-4.86,0.93c-4.47,0-7.14-2.97-7.14-7.35c0-4.382,2.58-7.802,6.81-7.802c4.77,0,6,4.142,6,6.812
		c0,0.54-0.03,0.93-0.09,1.229L205.432,476.22L205.432,476.22z M213.171,474.331c0.03-1.65-0.69-4.26-3.66-4.26
		c-2.7,0-3.84,2.43-4.05,4.26H213.171z"/>
	<path fill="#FFFFFF" d="M218.992,473.01c0-1.71-0.03-3.18-0.12-4.528h2.31l0.12,2.88h0.09c0.66-1.95,2.28-3.182,4.05-3.182
		c0.27,0,0.48,0.03,0.72,0.062v2.49c-0.27-0.062-0.54-0.062-0.9-0.062c-1.86,0-3.18,1.38-3.54,3.36
		c-0.06,0.358-0.09,0.81-0.09,1.229V483h-2.64V473.01L218.992,473.01z"/>
	<path fill="#FFFFFF" d="M238.101,464.401c0,0.898-0.63,1.62-1.68,1.62c-0.96,0-1.59-0.722-1.59-1.62c0-0.9,0.66-1.65,1.65-1.65
		C237.441,462.751,238.101,463.471,238.101,464.401z M235.161,483v-14.52h2.64V483H235.161z"/>
	<path fill="#FFFFFF" d="M245.36,465.001v3.479h3.78v2.01h-3.78v7.83c0,1.8,0.51,2.818,1.98,2.818c0.72,0,1.14-0.061,1.53-0.181
		l0.12,2.011c-0.51,0.182-1.32,0.359-2.34,0.359c-1.23,0-2.22-0.42-2.85-1.109c-0.72-0.811-1.02-2.101-1.02-3.811v-7.919h-2.25
		v-2.011h2.25v-2.699L245.36,465.001z"/>
	<path fill="#FFFFFF" d="M258.11,480.33c0.81,0.479,2.19,1.02,3.51,1.02c1.89,0,2.79-0.93,2.79-2.158c0-1.262-0.75-1.922-2.67-2.642
		c-2.64-0.96-3.87-2.37-3.87-4.108c0-2.342,1.92-4.262,5.01-4.262c1.47,0,2.76,0.392,3.54,0.9l-0.63,1.92
		c-0.57-0.36-1.62-0.87-2.97-0.87c-1.56,0-2.4,0.9-2.4,1.98c0,1.198,0.84,1.738,2.73,2.488c2.49,0.932,3.81,2.189,3.81,4.352
		c0,2.58-2.01,4.38-5.4,4.38c-1.59,0-3.06-0.42-4.08-1.021L258.11,480.33z"/>
	<path fill="#FFFFFF" d="M273.53,465.001v3.479h3.78v2.01h-3.78v7.83c0,1.8,0.51,2.818,1.98,2.818c0.72,0,1.14-0.061,1.53-0.181
		l0.12,2.011c-0.51,0.182-1.32,0.359-2.34,0.359c-1.23,0-2.22-0.42-2.85-1.109c-0.72-0.811-1.02-2.101-1.02-3.811v-7.919h-2.25
		v-2.011h2.25v-2.699L273.53,465.001z"/>
	<path fill="#FFFFFF" d="M280.28,473.01c0-1.71-0.03-3.18-0.12-4.528h2.31l0.12,2.88h0.09c0.66-1.95,2.28-3.182,4.05-3.182
		c0.27,0,0.48,0.03,0.72,0.062v2.49c-0.27-0.062-0.54-0.062-0.9-0.062c-1.86,0-3.18,1.38-3.54,3.36
		c-0.06,0.358-0.09,0.81-0.09,1.229V483h-2.64V473.01L280.28,473.01z"/>
	<path fill="#FFFFFF" d="M300.14,479.52c0,1.262,0.06,2.49,0.21,3.48h-2.37l-0.21-1.83h-0.09c-0.81,1.141-2.37,2.16-4.44,2.16
		c-2.94,0-4.44-2.07-4.44-4.17c0-3.51,3.12-5.43,8.73-5.4v-0.3c0-1.17-0.33-3.36-3.3-3.33c-1.38,0-2.79,0.392-3.81,1.08l-0.6-1.77
		c1.2-0.75,2.97-1.262,4.8-1.262c4.44,0,5.52,3.03,5.52,5.91V479.52z M297.59,475.59c-2.88-0.06-6.15,0.45-6.15,3.271
		c0,1.737,1.14,2.52,2.46,2.52c1.92,0,3.15-1.2,3.57-2.43c0.09-0.3,0.12-0.602,0.12-0.84V475.59z"/>
	<path fill="#FFFFFF" d="M307.34,464.401c0,0.898-0.63,1.62-1.68,1.62c-0.96,0-1.59-0.722-1.59-1.62c0-0.9,0.66-1.65,1.65-1.65
		C306.68,462.751,307.34,463.471,307.34,464.401z M304.4,483v-14.52h2.64V483H304.4z"/>
	<path fill="#FFFFFF" d="M323.84,480.87c0,3.36-0.688,5.37-2.07,6.659c-1.438,1.291-3.479,1.738-5.31,1.738
		c-1.74,0-3.66-0.42-4.83-1.197l0.66-2.041c0.96,0.631,2.459,1.17,4.26,1.17c2.7,0,4.682-1.409,4.682-5.102v-1.59h-0.062
		c-0.78,1.352-2.37,2.432-4.62,2.432c-3.6,0-6.18-3.062-6.18-7.079c0-4.92,3.209-7.682,6.569-7.682c2.52,0,3.868,1.29,4.527,2.49
		h0.062l0.09-2.188h2.34c-0.09,1.02-0.119,2.22-0.119,3.96V480.87L323.84,480.87z M321.199,474.21c0-0.45-0.029-0.84-0.15-1.17
		c-0.479-1.56-1.739-2.82-3.688-2.82c-2.521,0-4.32,2.13-4.32,5.49c0,2.85,1.47,5.219,4.29,5.219c1.65,0,3.12-1.02,3.661-2.7
		c0.147-0.448,0.209-0.96,0.209-1.408L321.199,474.21L321.199,474.21z"/>
	<path fill="#FFFFFF" d="M328.189,461.701h2.64v9.09h0.06c0.42-0.75,1.08-1.44,1.893-1.89c0.777-0.45,1.71-0.722,2.697-0.722
		c1.951,0,5.07,1.2,5.07,6.182V483h-2.64v-8.34c0-2.34-0.87-4.29-3.36-4.29c-1.709,0-3.029,1.2-3.539,2.61
		c-0.148,0.39-0.181,0.778-0.181,1.26V483h-2.64V461.701z"/>
	<path fill="#FFFFFF" d="M347.899,465.001v3.479h3.778v2.01h-3.778v7.83c0,1.8,0.511,2.818,1.979,2.818
		c0.721,0,1.141-0.061,1.531-0.181l0.119,2.011c-0.512,0.182-1.32,0.359-2.342,0.359c-1.229,0-2.22-0.42-2.85-1.109
		c-0.721-0.811-1.02-2.101-1.02-3.811v-7.919h-2.25v-2.011h2.25v-2.699L347.899,465.001z"/>
	<path fill="#FFFFFF" d="M364.188,465.001v3.479h3.78v2.01h-3.78v7.83c0,1.8,0.513,2.818,1.979,2.818
		c0.721,0,1.141-0.061,1.531-0.181l0.119,2.011c-0.512,0.182-1.32,0.359-2.342,0.359c-1.229,0-2.22-0.42-2.85-1.109
		c-0.721-0.811-1.02-2.101-1.02-3.811v-7.919h-2.25v-2.011h2.25v-2.699L364.188,465.001z"/>
	<path fill="#FFFFFF" d="M383.898,475.62c0,5.37-3.75,7.71-7.23,7.71c-3.899,0-6.959-2.88-6.959-7.47
		c0-4.83,3.209-7.682,7.199-7.682C381.078,468.181,383.898,471.21,383.898,475.62z M372.408,475.771c0,3.18,1.801,5.577,4.381,5.577
		c2.52,0,4.409-2.368,4.409-5.639c0-2.46-1.229-5.55-4.352-5.55C373.759,470.161,372.408,473.041,372.408,475.771z"/>
	<path fill="#FFFFFF" d="M394.549,468.48l3.149,8.578c0.358,0.96,0.72,2.102,0.96,2.972h0.061c0.271-0.87,0.569-1.98,0.932-3.03
		l2.879-8.52h2.791l-3.961,10.35c-1.891,4.979-3.182,7.5-4.979,9.09c-1.32,1.109-2.58,1.562-3.24,1.68l-0.659-2.188
		c0.659-0.211,1.528-0.631,2.311-1.29c0.72-0.57,1.591-1.591,2.22-2.94c0.121-0.27,0.211-0.479,0.211-0.63
		c0-0.147-0.061-0.358-0.211-0.688l-5.34-13.379h2.88v-0.004H394.549z"/>
	<path fill="#FFFFFF" d="M420.559,475.62c0,5.37-3.75,7.71-7.229,7.71c-3.9,0-6.959-2.88-6.959-7.47c0-4.83,3.209-7.682,7.199-7.682
		C417.738,468.181,420.559,471.21,420.559,475.62z M409.068,475.771c0,3.18,1.8,5.577,4.38,5.577c2.521,0,4.409-2.368,4.409-5.639
		c0-2.46-1.229-5.55-4.352-5.55C410.418,470.161,409.068,473.041,409.068,475.771z"/>
	<path fill="#FFFFFF" d="M436.037,479.01c0,1.53,0.031,2.851,0.121,3.99h-2.34l-0.15-2.37h-0.061c-0.66,1.17-2.222,2.7-4.801,2.7
		c-2.279,0-5.01-1.29-5.01-6.36v-8.488h2.639v8.01c0,2.76,0.871,4.648,3.24,4.648c1.771,0,3-1.229,3.48-2.431
		c0.147-0.36,0.238-0.84,0.238-1.35v-8.881h2.641L436.037,479.01L436.037,479.01z"/>
	<path fill="#FFFFFF" d="M456.978,479.52c0,1.262,0.062,2.49,0.21,3.48h-2.368l-0.21-1.83h-0.092
		c-0.811,1.141-2.368,2.16-4.438,2.16c-2.94,0-4.44-2.07-4.44-4.17c0-3.51,3.12-5.43,8.729-5.4v-0.3c0-1.17-0.33-3.36-3.299-3.33
		c-1.382,0-2.791,0.392-3.812,1.08l-0.6-1.77c1.199-0.75,2.969-1.262,4.799-1.262c4.44,0,5.521,3.03,5.521,5.91V479.52z
		 M454.428,475.59c-2.881-0.06-6.148,0.45-6.148,3.271c0,1.737,1.141,2.52,2.461,2.52c1.92,0,3.147-1.2,3.567-2.43
		c0.092-0.3,0.12-0.602,0.12-0.84V475.59z"/>
	<path fill="#FFFFFF" d="M461.238,472.411c0-1.53-0.031-2.73-0.121-3.93h2.34l0.15,2.398h0.061c0.72-1.35,2.399-2.7,4.799-2.7
		c2.011,0,5.131,1.2,5.131,6.182V483h-2.641v-8.37c0-2.34-0.869-4.29-3.359-4.29c-1.71,0-3.061,1.23-3.54,2.7
		c-0.118,0.33-0.181,0.78-0.181,1.229V483h-2.639V472.411z"/>
	<path fill="#FFFFFF" d="M478.458,468.48l3.149,8.578c0.358,0.96,0.721,2.102,0.961,2.972h0.06c0.271-0.87,0.569-1.98,0.93-3.03
		l2.88-8.52h2.79l-3.96,10.35c-1.89,4.979-3.18,7.5-4.979,9.09c-1.32,1.109-2.58,1.562-3.24,1.68l-0.659-2.188
		c0.659-0.211,1.529-0.631,2.311-1.29c0.721-0.57,1.591-1.591,2.221-2.94c0.12-0.27,0.21-0.479,0.21-0.63
		c0-0.147-0.06-0.358-0.21-0.688l-5.34-13.379h2.878L478.458,468.48L478.458,468.48z"/>
	<path fill="#FFFFFF" d="M494.808,465.001v3.479h3.78v2.01h-3.78v7.83c0,1.8,0.513,2.818,1.979,2.818
		c0.721,0,1.141-0.061,1.531-0.181l0.119,2.011c-0.512,0.182-1.32,0.359-2.342,0.359c-1.229,0-2.22-0.42-2.85-1.109
		c-0.721-0.811-1.021-2.101-1.021-3.811v-7.919h-2.25v-2.011h2.25v-2.699L494.808,465.001z"/>
	<path fill="#FFFFFF" d="M504.498,464.401c0,0.898-0.631,1.62-1.681,1.62c-0.96,0-1.592-0.722-1.592-1.62
		c0-0.9,0.66-1.65,1.649-1.65C503.838,462.751,504.498,463.471,504.498,464.401z M501.558,483v-14.52h2.642V483H501.558z"/>
	<path fill="#FFFFFF" d="M508.577,472.411c0-1.53-0.062-2.73-0.12-3.93h2.311l0.119,2.368h0.09c0.812-1.38,2.16-2.67,4.592-2.67
		c1.948,0,3.448,1.2,4.08,2.91h0.061c0.449-0.84,1.05-1.438,1.649-1.89c0.868-0.66,1.8-1.021,3.181-1.021
		c1.949,0,4.799,1.262,4.799,6.302V483h-2.58v-8.189c0-2.818-1.049-4.47-3.147-4.47c-1.53,0-2.67,1.11-3.149,2.37
		c-0.121,0.39-0.211,0.84-0.211,1.32V483h-2.58v-8.7c0-2.31-1.02-3.96-3.029-3.96c-1.619,0-2.85,1.32-3.27,2.642
		c-0.15,0.358-0.21,0.84-0.21,1.288V483h-2.58v-10.589H508.577z"/>
	<path fill="#FFFFFF" d="M535.066,476.22c0.061,3.57,2.311,5.04,4.979,5.04c1.891,0,3.062-0.33,4.021-0.75l0.479,1.893
		c-0.93,0.42-2.551,0.93-4.859,0.93c-4.471,0-7.141-2.97-7.141-7.35c0-4.382,2.58-7.802,6.812-7.802c4.77,0,5.998,4.142,5.998,6.812
		c0,0.54-0.029,0.93-0.091,1.229L535.066,476.22L535.066,476.22z M542.807,474.331c0.03-1.65-0.688-4.26-3.658-4.26
		c-2.699,0-3.842,2.43-4.051,4.26H542.807z"/>
	<path fill="#FFFFFF" d="M193.928,497.701h2.61v9.119h0.06c0.93-1.619,2.61-2.642,4.95-2.642c3.63,0,6.15,3,6.15,7.38
		c0,5.189-3.3,7.771-6.54,7.771c-2.1,0-3.78-0.812-4.89-2.7h-0.06l-0.15,2.37h-2.25c0.06-0.99,0.12-2.46,0.12-3.75V497.701z
		 M196.538,513.18c0,0.33,0.03,0.66,0.12,0.961c0.48,1.83,2.04,3.092,3.96,3.092c2.79,0,4.41-2.25,4.41-5.58
		c0-2.91-1.5-5.4-4.35-5.4c-1.77,0-3.45,1.26-3.99,3.24c-0.09,0.33-0.15,0.688-0.15,1.108V513.18z"/>
	<path fill="#FFFFFF" d="M212.467,512.221c0.06,3.569,2.31,5.039,4.98,5.039c1.89,0,3.06-0.33,4.02-0.75l0.48,1.893
		c-0.93,0.42-2.55,0.93-4.86,0.93c-4.47,0-7.14-2.97-7.14-7.35c0-4.382,2.58-7.802,6.81-7.802c4.77,0,6,4.142,6,6.812
		c0,0.54-0.03,0.93-0.09,1.229H212.467z M220.207,510.33c0.03-1.649-0.69-4.26-3.66-4.26c-2.7,0-3.84,2.43-4.05,4.26H220.207z"/>
	<path fill="#FFFFFF" d="M229.207,501.001v3.479h3.78v2.01h-3.78v7.83c0,1.8,0.51,2.818,1.98,2.818c0.72,0,1.14-0.061,1.53-0.181
		l0.12,2.011c-0.51,0.182-1.32,0.359-2.34,0.359c-1.23,0-2.22-0.42-2.85-1.109c-0.72-0.811-1.02-2.101-1.02-3.811v-7.92h-2.25
		v-2.012h2.25v-2.697L229.207,501.001z"/>
	<path fill="#FFFFFF" d="M237.276,504.48l1.95,7.38c0.39,1.62,0.78,3.12,1.05,4.62h0.09c0.33-1.473,0.81-3.03,1.29-4.592l2.37-7.408
		h2.22l2.25,7.26c0.54,1.74,0.96,3.27,1.29,4.74h0.09c0.24-1.473,0.63-3,1.11-4.71l2.07-7.29h2.61l-4.68,14.52h-2.4l-2.22-6.93
		c-0.51-1.62-0.93-3.062-1.29-4.771h-0.06c-0.36,1.74-0.81,3.24-1.32,4.799l-2.34,6.9h-2.4l-4.38-14.52L237.276,504.48
		L237.276,504.48z"/>
	<path fill="#FFFFFF" d="M259.476,512.221c0.06,3.569,2.31,5.039,4.98,5.039c1.89,0,3.06-0.33,4.02-0.75l0.48,1.893
		c-0.93,0.42-2.55,0.93-4.86,0.93c-4.47,0-7.14-2.97-7.14-7.35c0-4.382,2.58-7.802,6.81-7.802c4.77,0,6,4.142,6,6.812
		c0,0.54-0.03,0.93-0.09,1.229H259.476z M267.216,510.33c0.03-1.649-0.69-4.26-3.66-4.26c-2.7,0-3.84,2.43-4.05,4.26H267.216z"/>
	<path fill="#FFFFFF" d="M274.506,512.221c0.06,3.569,2.31,5.039,4.98,5.039c1.89,0,3.06-0.33,4.02-0.75l0.48,1.893
		c-0.93,0.42-2.55,0.93-4.86,0.93c-4.47,0-7.14-2.97-7.14-7.35c0-4.382,2.58-7.802,6.81-7.802c4.77,0,6,4.142,6,6.812
		c0,0.54-0.03,0.93-0.09,1.229H274.506z M282.246,510.33c0.03-1.649-0.69-4.26-3.66-4.26c-2.7,0-3.84,2.43-4.05,4.26H282.246z"/>
	<path fill="#FFFFFF" d="M288.066,508.41c0-1.529-0.03-2.729-0.12-3.93h2.34l0.15,2.398h0.06c0.72-1.35,2.4-2.7,4.8-2.7
		c2.01,0,5.13,1.2,5.13,6.182V519h-2.64v-8.369c0-2.34-0.87-4.291-3.36-4.291c-1.71,0-3.06,1.23-3.54,2.701
		c-0.12,0.33-0.18,0.779-0.18,1.229V519h-2.64V508.41L288.066,508.41z"/>
	<path fill="#FAC403" d="M324.125,499.501v2.88L316.085,519h-4.83l8.04-15.689v-0.061h-8.938v-3.749H324.125z"/>
	<path fill="#FAC403" d="M332.225,513.811L330.785,519h-4.71l6.147-20.219h6L344.524,519h-4.95l-1.562-5.189H332.225z
		 M337.354,510.391l-1.26-4.29c-0.358-1.198-0.72-2.698-1.021-3.897h-0.062c-0.3,1.199-0.601,2.729-0.93,3.897l-1.2,4.29H337.354z"
		/>
	<path fill="#FAC403" d="M364.294,511.26c-0.09-2.43-0.18-5.369-0.18-8.309h-0.062c-0.66,2.58-1.5,5.459-2.279,7.829l-2.459,7.89
		h-3.57l-2.16-7.8c-0.66-2.399-1.319-5.28-1.83-7.919h-0.059c-0.093,2.729-0.211,5.85-0.33,8.369l-0.393,7.68h-4.229l1.291-20.219
		h6.09l1.979,6.75c0.659,2.34,1.262,4.857,1.712,7.229h0.117c0.541-2.34,1.23-5.01,1.921-7.26l2.132-6.719h6l1.08,20.219h-4.44
		L364.294,511.26z"/>
	<path fill="#FAC403" d="M379.444,509.61v3.028h-7.86v-3.028H379.444L379.444,509.61z"/>
	<path fill="#FAC403" d="M382.414,514.53c0.811,0.45,2.67,1.2,4.529,1.2c2.371,0,3.568-1.143,3.568-2.58c0-1.95-1.92-2.82-3.93-2.82
		h-1.859v-3.271h1.801c1.528,0,3.448-0.6,3.448-2.25c0-1.17-0.93-2.04-2.88-2.04c-1.59,0-3.27,0.69-4.05,1.172l-0.93-3.302
		c1.17-0.75,3.479-1.47,6.028-1.47c4.141,0,6.449,2.19,6.449,4.86c0,2.067-1.17,3.719-3.568,4.527v0.062
		c2.34,0.42,4.229,2.188,4.229,4.77c0,3.42-3.03,5.939-7.979,5.939c-2.521,0-4.649-0.66-5.789-1.35L382.414,514.53z"/>
	<path fill="#FAC403" d="M403.684,513.811L402.244,519h-4.71l6.147-20.219h6L415.983,519h-4.95l-1.562-5.189H403.684z
		 M408.812,510.391l-1.261-4.29c-0.358-1.198-0.72-2.698-1.021-3.897h-0.062c-0.3,1.199-0.601,2.729-0.93,3.897l-1.2,4.29H408.812z"
		/>
	<path fill="#FAC403" d="M435.753,511.26c-0.09-2.43-0.18-5.369-0.18-8.309h-0.062c-0.66,2.58-1.5,5.459-2.279,7.829l-2.459,7.89
		h-3.57l-2.16-7.8c-0.66-2.399-1.319-5.28-1.83-7.919h-0.059c-0.093,2.729-0.211,5.85-0.33,8.369l-0.393,7.68h-4.229l1.291-20.219
		h6.09l1.979,6.75c0.659,2.34,1.262,4.857,1.712,7.229h0.117c0.541-2.34,1.23-5.01,1.921-7.26l2.132-6.719h6l1.08,20.219h-4.44
		L435.753,511.26z"/>
	<path fill="#FAC403" d="M443.613,517.439c0-1.079,0.75-1.891,1.801-1.891c1.049,0,1.77,0.779,1.77,1.891
		c0,1.08-0.721,1.891-1.83,1.891C444.334,519.33,443.613,518.52,443.613,517.439z"/>
</g>
<g id="Welcome">
	<g enable-background="new    ">
		<path fill="#FFFFFF" d="M199.422,250.814h8.234l3.818,34.266l0.432,8.002h0.83l0.797-8.998l6.109-33.27h6.873l5.844,33.27
			l0.664,8.998h0.863l0.398-8.002l3.486-34.266h8.268l-7.936,56.711h-8.732l-4.682-27.26l-1.461-11.854h-0.664l-1.428,11.854
			l-4.914,27.26h-8.633L199.422,250.814z"/>
		<path fill="#FFFFFF" d="M252.149,250.814h21.018v6.773h-12.418v16.967h9.596v6.773h-9.596v19.424h12.75v6.773h-21.35V250.814
			L252.149,250.814z"/>
		<path fill="#FFFFFF" d="M279.708,250.814h8.6v49.938h11.721v6.773h-20.32L279.708,250.814L279.708,250.814z"/>
		<path fill="#FFFFFF" d="M303.913,289.064v-20.088c0-17.1,8.6-18.66,13.746-18.66c8.998,0,11.853,5.445,11.853,12.02
			c0,2.424-0.229,4.316-0.729,6.773h-6.976v-2.889c0-6.209-1.427-9.33-4.05-9.33c-3.151,0-4.812,2.258-4.812,9.529v25.898
			c0,7.039,1.262,9.197,4.748,9.197c2.225,0,4.216-2.025,4.216-6.574v-5.545h7.869v5.246c0,9.098-4.283,13.348-12.085,13.381
			C312.312,308.023,303.913,306.098,303.913,289.064z"/>
		<path fill="#FFFFFF" d="M334.99,289.064v-20.088c0-17.1,8.799-18.66,14.108-18.66c5.113,0,13.979,1.295,13.979,18.66v20.088
			c0,16.834-9.031,18.959-13.979,18.959C343.59,308.023,334.99,306.098,334.99,289.064z M354.115,292.418v-25.799
			c0-7.271-1.627-9.529-5.017-9.529c-3.483,0-5.11,2.258-5.11,9.529v25.799c0,7.039,1.627,9.131,5.11,9.131
			C352.488,301.549,354.115,299.457,354.115,292.418z"/>
		<path fill="#FFFFFF" d="M371.215,250.814h11.223l5.445,21.947c1.162,4.848,1.729,9.33,2.324,13.182h0.266
			c0.601-3.852,1.162-8.334,2.324-13.182l5.611-21.947h10.99v56.711h-8.035v-18.76c0-11.521,0.528-21.582,0.896-25.566h-0.631
			l-8.566,37.021h-5.442l-8.633-37.021h-0.634c0.365,3.984,0.896,14.045,0.896,25.566v18.76h-8.035L371.215,250.814L371.215,250.814
			z"/>
		<path fill="#FFFFFF" d="M419.094,250.814h21.021v6.773h-12.418v16.967h9.596v6.773h-9.596v19.424h12.75v6.773h-21.353V250.814z"/>
	</g>
</g>
<g id="Logo_1_">
	<g id="Logo">
		<circle fill="#456E4A" cx="321.87" cy="118.75" r="91.75"/>
	</g>
</g>
<path id="Bear" fill="#FAC403" d="M325.533,150.82c5.743,0,10.4,4.656,10.4,10.401c0,5.746-4.657,10.403-10.4,10.403
	c-5.746,0-10.402-4.658-10.402-10.403c0-0.276,0.011-0.552,0.033-0.825l-0.249,0.188l-2.125,1.266l-1.307,1.531l-0.667,0.833
	l-0.456,0.566l-1.336,0.199l-0.081-0.02c-0.869,0.754-2.006,1.213-3.248,1.213c-0.853,0-1.655-0.217-2.356-0.597l-6.097-0.77
	c-1.459,3.98-5.283,6.819-9.769,6.819c-5.746,0-10.402-4.658-10.402-10.403c0-5.745,4.657-10.401,10.402-10.401
	c2.026,0,3.916,0.58,5.514,1.58l2.537-3.479l-0.959-1.89l-1.246-2.698l-0.152,0.634l-0.546-1.301l-0.305,0.634l-1.062-2.631
	l-0.091,0.833l-1.063-2.998l-0.121,0.901l-0.578-2.565l-0.365,0.367l-0.638-2.199l-0.486,0.432l0.153-1.864l-0.335,1.099
	l-0.364-3.729l-0.273,1.698l-0.912-6.394l-0.395,0.799l0.091-4.097l-0.456,0.534l0.334-3.196l-0.485,0.465l0.394-4.528l-0.607,0.466
	l0.911-3.764l-1.761,0.399l-1.641,0.034l-2.127-0.466l-1.943-0.866l-1.884-1.231l-1.64-1.898l-1.184-2.031l-0.698-1.9l-0.365-2.497
	l0.152-2.564l0.425-2.763l1.002-2.5l1.64-3.062l2.126-2.897l1.853-2.398l1.944-1.599l-0.152-0.465l-0.243-0.801l0.183-0.899
	l1.882-1.097l2.703-1.199l3.555-1.399l3.371-0.966l3.28-0.466h3.28l4.162,0.734l-0.182-1.067l-0.395-1.931l-0.273-2.131
	l-0.092-1.398l0.273-1.199l1.581-1.267l2.55-0.266l2.188,0.333l0.607,0.566l0.335,0.864l-0.122,0.833l-1.336,5.196l2.308-1.199
	l-1.124-0.034l3.038-0.966l-1.276-0.232l4.617-1.032l-0.971-0.201l3.917-0.799l-0.576-0.333l4.068-0.332l-0.638-0.699l1.884,0.499
	l-0.973-0.6l5.225-0.233l-0.761-0.565l4.254,0.432l-0.729-0.565l3.979,0.531l-0.548-0.565l3.46,1.165l-0.726-0.865l3.887,1.532
	l-0.67-0.766l3.192,1.499l-0.243-0.633l2.275,1.332l-0.484-0.833l2.703,1.699l-0.607-0.866l2.612,1.698l-0.579-1.033l2.064,1.866
	l0.094-0.633l0.697,1.364l-0.181-1.099l2.005,1.898l-0.245-0.866l1.915,1.599l-0.212-0.733l0.757,0.832l0.549-0.266l-0.364-0.133
	l1.093-1.099l-0.364-0.134l1.155-0.667l-0.273-0.099l1.549-0.5l-0.304-0.299l1.64,0.233l-0.15-0.4l1.396,0.767l-0.149-0.566
	l1.364,1.332l-0.091-0.532l0.821,1.231l0.122-0.466l0.273,1.799l0.36-0.434l-0.271,1.997l0.485-0.399l-0.729,1.432l0.485-0.133
	l-1.397,1.631l0.7,0.367l2.124,1.264l-0.485-0.765l2.855,2.097l2.124,1.699l0.76,0.932l0.729,1.599l0.396,1.366l0.396,1.299
	l0.67,0.466l2.672,1.664l2.824,1.167l1.062,0.233h0.821h0.485l0.788,0.366l0.457,1.167l-0.062,1.23l-0.576,1.432l-1.61,2.364
	l-1.763,2.266l-1.974,2.131l-1.791,1.699l-2.491,1.097l-2.734,0.634l-1.882,0.499l0.243-0.499l-1.824,0.633l0.242-0.6l-2.124-0.267
	l-2.46-0.199l-3.858-0.066l1.428-0.401l-4.436-0.031l0.669-0.7l-2.127,0.367l0.427-0.667l-2.551,0.599l0.483-0.564l-3.249,0.466
	l0.667-0.599l-4.342,0.999l1.03-1.066l-3.432,1.364l-0.851-0.664l-4.134,1.564l0.185-0.532l-1.336,0.798l0.396-0.699l-3.494,2.065
	l0.701-1.165l-3.769,2.363l1.062-1.332l-3.766,2.698l-0.304-0.599l-0.881,1.598l-0.213-0.731l-0.606,2.064l-0.213-0.633
	l-0.334,2.931l-0.334-0.898l-0.031,4.462l-0.303-0.667l-0.062,3.962l-0.305-0.599l0.031,2.431l-0.306-0.464l0.334,2.662
	l-0.424-0.298l0.941,1.896l-0.305-0.165l0.819,1.498l-0.334-0.034l0.516,0.966l-0.271,0.032l0.364,0.733l0.85,0.699l-0.637-0.199
	l0.547,0.533l1.093,0.632l-0.517-0.066l0.334,0.4l0.395,1.032l-0.15,1.366l-0.607,0.999l-1.185,0.4l-1.062-0.333l-0.847-0.677
	l-2.675,0.512l2.476,10.173C324.304,150.875,324.911,150.82,325.533,150.82L325.533,150.82z M322.003,149.76l-12.246,8.63
	c0.332,0.479,0.583,1.014,0.733,1.593l0.75-1.096l0.851-1.034l1.336-1.432l1.398-0.999l1.396-1.066l2.136-0.664
	c1.129-1.078,2.5-1.901,4.022-2.385L322.003,149.76L322.003,149.76z M308.812,157.377l12.841-9.051l-0.387-1.587
	c-0.066,0.021-0.14,0.034-0.215,0.034l-7.663-0.022l-0.084,0.215l-0.12-0.215l-0.569-0.001l-1.376,1.481l-0.274-0.299l-1.244,1.065
	l0.09-0.466l-0.697,0.466l-1.246,0.532l1.975,0.168l2.36,0.375l1.102,0.777l0.773,0.926l-0.369,1.109l-0.521,0.539l-0.933,0.23
	l-1.198-0.128l-0.241,0.733l-2.426-0.315l-1.159,0.049l0.151,0.665l0.517,1.332l0.798,1.296L308.812,157.377L308.812,157.377z
	 M289.851,160.675l5.514,0.016c-0.046-0.698-0.183-1.37-0.399-2.007l-5.414,0.76l-0.18,0.247
	C289.6,159.974,289.767,160.31,289.851,160.675L289.851,160.675z M297.863,160.698l2.909,0.007c0.1-0.969,0.481-1.854,1.058-2.575
	l-0.066-0.078l-0.107-0.308l-4.189,0.587C297.686,159.089,297.822,159.882,297.863,160.698L297.863,160.698z M300.818,162.078
	l-2.977-0.008c-0.061,0.751-0.202,1.484-0.415,2.182l4.926,0.622C301.563,164.151,301.01,163.177,300.818,162.078L300.818,162.078z
	 M295.338,162.061l-5.568-0.014c-0.165,0.455-0.458,0.847-0.839,1.13l5.974,0.755C295.122,163.339,295.27,162.712,295.338,162.061
	L295.338,162.061z M294.681,164.483l-6.786-0.857c-0.137,0.023-0.278,0.036-0.421,0.036c-1.347,0-2.44-1.09-2.44-2.439
	c0-1.346,1.093-2.438,2.44-2.438c0.27,0,0.529,0.042,0.771,0.124l3.27-4.485c-1.183-0.705-2.564-1.11-4.041-1.11
	c-4.369,0-7.909,3.542-7.909,7.909c0,4.368,3.54,7.909,7.909,7.909C290.679,169.131,293.439,167.226,294.681,164.483
	L294.681,164.483z M294.1,153.203c1.443,1.196,2.558,2.772,3.191,4.576l4.175-0.586l-0.128-0.371l-0.091-0.631l-0.486-1.166
	l-0.061,0.365l-0.608-1.232l-0.09,0.4l-0.759-1.699l-0.062,0.466l-1.033-1.863l-0.03,0.631l-1.063-2.13l-0.182,0.565l-0.367-0.625
	L294.1,153.203L294.1,153.203z M292.627,155.224l-2.604,3.575l4.733-0.664C294.277,157.006,293.543,156.012,292.627,155.224
	L292.627,155.224z M314.199,145.381l6.744,0.02l-1.058-4.337l-0.209,0.04c-0.484,0.095-0.959-0.228-1.053-0.713l0,0
	c-0.092-0.484,0.229-0.958,0.715-1.051l4.474-0.856l-0.514-1.01l-0.092,0.367l-0.789-1.232l0.061,0.333l-0.668-1.066l-0.03,0.333
	l-0.911-1.533l-0.062,0.468l-0.79-1.631l-0.091,0.332l-1.002-1.599l-1.154-1.698l-0.182,0.633l-0.486-2.065l-0.151,0.466
	l-0.76-2.298l-0.15,0.6l-0.487-2.298l-0.121,0.367l-0.547-1.566l-1.003,2.499l-0.182-0.568l-0.668,1.832l-0.183-0.631l-0.546,2.164
	l-0.244-0.434l-0.547,2.398l-0.243-0.432l-0.334,2.063l-0.272-0.664l-0.152,0.931l0.031,1.066l-0.396-0.034l0.639,0.866
	l-0.606-0.267l1.063,1.566l-0.577-0.266l1.032,1.398l-0.304,0.031l1.186,1.566l-0.426-0.032l1.488,1.997l-0.668-0.365l1.61,2.398
	h-0.334l0.364,0.765l-0.364,0.034l0.546,0.731l-0.517-0.266L314.199,145.381L314.199,145.381z M318.006,158.79
	c-0.248,0.767-0.382,1.583-0.382,2.432c0,4.368,3.541,7.909,7.909,7.909s7.907-3.541,7.907-7.909c0-4.367-3.539-7.909-7.907-7.909
	c-0.419,0-0.829,0.034-1.23,0.096l1.524,6.262c0.729,0.139,1.283,0.78,1.283,1.551c0,0.872-0.706,1.579-1.577,1.579
	c-0.872,0-1.578-0.708-1.578-1.579c0-0.476,0.211-0.905,0.546-1.193l-1.53-6.29c-0.837,0.287-1.609,0.71-2.295,1.243l0.011,0.008
	l0.517,1.333l-0.396,0.999l-0.668,0.466l-0.729,0.432l-1.154,0.466L318.006,158.79L318.006,158.79z M305.024,79.044l0.645,0.344
	l1.505-0.99l0.646-2.065l0.301-2.667l-0.731-0.772c0,0-1.162,0.127-1.462,0.042c-0.301-0.086-0.86,0.558-0.86,0.558l-0.215,1.979
	L305.024,79.044z"/>
</svg>
