<?xml version="1.0" encoding="utf-8"?>
<!-- Generator: Adobe Illustrator 16.0.0, SVG Export Plug-In . SVG Version: 6.00 Build 0)  -->
<!DOCTYPE svg PUBLIC "-//W3C//DTD SVG 1.1//EN" "http://www.w3.org/Graphics/SVG/1.1/DTD/svg11.dtd">
<svg version="1.1" id="Layer_1" xmlns="http://www.w3.org/2000/svg" xmlns:xlink="http://www.w3.org/1999/xlink" x="0px" y="0px"
	 width="640px" height="960px" viewBox="0 0 640 960" enable-background="new 0 0 640 960" xml:space="preserve">
<g id="BG">
	<rect opacity="0.86" fill="#456E4A" enable-background="new    " width="640" height="960"/>
</g>
<g id="Logo_1_" opacity="0.86" enable-background="new    ">
	<g id="Logo">
		<circle fill="#456E4A" cx="321.87" cy="118.75" r="91.75"/>
	</g>
</g>
<path id="Bear" fill="#FAC403" d="M325.533,150.82c5.743,0,10.399,4.656,10.399,10.4c0,5.746-4.656,10.403-10.399,10.403
	c-5.746,0-10.402-4.658-10.402-10.403c0-0.275,0.011-0.552,0.033-0.825l-0.249,0.188l-2.125,1.266l-1.307,1.531l-0.667,0.833
	l-0.456,0.566l-1.336,0.199l-0.081-0.02c-0.869,0.754-2.006,1.213-3.249,1.213c-0.853,0-1.655-0.217-2.356-0.597l-6.097-0.77
	c-1.459,3.98-5.283,6.819-9.769,6.819c-5.746,0-10.402-4.658-10.402-10.403c0-5.745,4.657-10.4,10.402-10.4
	c2.026,0,3.916,0.58,5.514,1.58l2.537-3.479l-0.959-1.89l-1.246-2.698l-0.152,0.634l-0.546-1.301l-0.305,0.634l-1.062-2.631
	l-0.091,0.833l-1.063-2.998l-0.121,0.901l-0.578-2.565l-0.365,0.367l-0.638-2.199l-0.486,0.432l0.153-1.864l-0.335,1.099
	l-0.364-3.729l-0.273,1.698l-0.912-6.394l-0.395,0.799l0.091-4.097l-0.456,0.534l0.334-3.196l-0.485,0.465l0.394-4.528l-0.607,0.466
	l0.911-3.764l-1.761,0.399l-1.641,0.034l-2.127-0.466l-1.943-0.866l-1.884-1.231l-1.64-1.898l-1.184-2.031l-0.698-1.9l-0.365-2.497
	l0.152-2.564l0.425-2.763l1.002-2.5l1.64-3.062l2.126-2.897l1.853-2.398l1.944-1.599l-0.152-0.465l-0.243-0.801l0.183-0.899
	l1.882-1.097l2.703-1.199l3.555-1.399l3.371-0.966l3.28-0.466h3.28l4.162,0.734l-0.182-1.067l-0.395-1.931l-0.273-2.131
	l-0.092-1.398l0.273-1.199l1.581-1.267l2.55-0.266l2.188,0.333l0.606,0.566l0.336,0.864l-0.122,0.833l-1.336,5.196l2.308-1.199
	l-1.124-0.034l3.038-0.966l-1.276-0.232l4.617-1.032l-0.971-0.201l3.917-0.799l-0.576-0.333l4.068-0.332l-0.639-0.699l1.885,0.499
	l-0.974-0.6l5.226-0.233l-0.762-0.565l4.254,0.432l-0.729-0.565l3.979,0.531l-0.548-0.565l3.46,1.165l-0.726-0.865l3.887,1.532
	l-0.67-0.766l3.192,1.499l-0.243-0.633l2.274,1.332l-0.483-0.833l2.703,1.699l-0.607-0.866l2.612,1.698l-0.579-1.033l2.063,1.866
	l0.095-0.633l0.696,1.364l-0.181-1.099l2.005,1.897l-0.245-0.866l1.915,1.599l-0.212-0.733l0.757,0.832l0.549-0.266l-0.363-0.133
	l1.093-1.099l-0.364-0.134l1.155-0.667l-0.273-0.099l1.55-0.5l-0.305-0.299l1.641,0.233l-0.15-0.4l1.396,0.767l-0.149-0.566
	l1.364,1.332l-0.092-0.532l0.821,1.231l0.122-0.466l0.273,1.799l0.359-0.434l-0.271,1.997l0.485-0.399l-0.729,1.432l0.485-0.133
	l-1.397,1.631l0.7,0.367l2.124,1.264l-0.485-0.765l2.855,2.097l2.124,1.699l0.76,0.932l0.729,1.599l0.396,1.366l0.396,1.299
	l0.671,0.466l2.672,1.664l2.823,1.167l1.062,0.233h0.821h0.484l0.788,0.366l0.457,1.167l-0.062,1.23l-0.576,1.432l-1.61,2.364
	l-1.763,2.266l-1.974,2.131l-1.791,1.699l-2.491,1.097l-2.734,0.634l-1.882,0.499l0.243-0.499l-1.824,0.633l0.242-0.6l-2.124-0.268
	l-2.46-0.199l-3.858-0.066l1.429-0.401l-4.437-0.031l0.669-0.7l-2.127,0.367l0.427-0.667l-2.551,0.599l0.483-0.564l-3.249,0.466
	l0.667-0.599l-4.342,0.999l1.029-1.066l-3.432,1.364l-0.851-0.664l-4.135,1.564l0.186-0.532l-1.336,0.798l0.396-0.699l-3.494,2.065
	l0.701-1.165l-3.769,2.363l1.062-1.332l-3.766,2.698l-0.304-0.599l-0.882,1.598l-0.213-0.731l-0.605,2.064l-0.213-0.633
	l-0.335,2.931l-0.334-0.898l-0.03,4.462l-0.304-0.667l-0.062,3.962l-0.305-0.599l0.03,2.431l-0.306-0.464l0.334,2.662l-0.424-0.298
	l0.94,1.896l-0.305-0.165l0.819,1.498l-0.334-0.034l0.516,0.966l-0.271,0.032l0.363,0.733l0.851,0.699l-0.637-0.199l0.547,0.533
	l1.093,0.632l-0.518-0.066l0.334,0.4l0.396,1.032l-0.15,1.366l-0.606,0.999l-1.186,0.399l-1.062-0.333l-0.847-0.677l-2.676,0.512
	l2.477,10.173C324.304,150.875,324.911,150.82,325.533,150.82L325.533,150.82z M322.003,149.76l-12.246,8.63
	c0.332,0.479,0.583,1.014,0.733,1.593l0.75-1.096l0.851-1.034l1.336-1.432l1.398-0.999l1.396-1.066l2.137-0.664
	c1.129-1.078,2.5-1.901,4.021-2.385L322.003,149.76L322.003,149.76z M308.812,157.377l12.841-9.051l-0.388-1.587
	c-0.065,0.021-0.14,0.034-0.215,0.034l-7.663-0.022l-0.084,0.215l-0.12-0.215l-0.568-0.001l-1.376,1.481l-0.274-0.299l-1.244,1.065
	l0.09-0.466l-0.696,0.466l-1.246,0.532l1.975,0.168l2.36,0.375l1.102,0.777l0.773,0.926l-0.369,1.109l-0.521,0.539l-0.934,0.23
	l-1.198-0.128l-0.24,0.733l-2.427-0.315l-1.158,0.049l0.15,0.665l0.518,1.332l0.798,1.296L308.812,157.377L308.812,157.377z
	 M289.851,160.675l5.514,0.016c-0.046-0.698-0.183-1.37-0.399-2.007l-5.414,0.76l-0.18,0.247
	C289.6,159.974,289.767,160.31,289.851,160.675L289.851,160.675z M297.863,160.698l2.909,0.007c0.1-0.969,0.481-1.854,1.058-2.575
	l-0.066-0.078l-0.107-0.308l-4.189,0.587C297.686,159.089,297.822,159.882,297.863,160.698L297.863,160.698z M300.818,162.078
	l-2.977-0.008c-0.061,0.751-0.202,1.483-0.415,2.182l4.926,0.622C301.563,164.151,301.01,163.177,300.818,162.078L300.818,162.078z
	 M295.338,162.061l-5.568-0.014c-0.165,0.455-0.458,0.847-0.839,1.13l5.974,0.755C295.122,163.339,295.27,162.712,295.338,162.061
	L295.338,162.061z M294.681,164.483l-6.786-0.857c-0.137,0.023-0.278,0.036-0.421,0.036c-1.347,0-2.44-1.09-2.44-2.439
	c0-1.346,1.093-2.438,2.44-2.438c0.27,0,0.529,0.042,0.771,0.124l3.27-4.485c-1.183-0.705-2.564-1.11-4.041-1.11
	c-4.369,0-7.909,3.542-7.909,7.909c0,4.368,3.54,7.909,7.909,7.909C290.679,169.131,293.439,167.226,294.681,164.483
	L294.681,164.483z M294.1,153.203c1.443,1.196,2.558,2.772,3.191,4.576l4.175-0.586l-0.128-0.371l-0.091-0.631l-0.486-1.166
	l-0.061,0.365l-0.608-1.232l-0.09,0.4l-0.759-1.699l-0.062,0.466l-1.033-1.863l-0.03,0.631l-1.063-2.13l-0.182,0.565l-0.367-0.625
	L294.1,153.203L294.1,153.203z M292.627,155.224l-2.604,3.575l4.733-0.664C294.277,157.006,293.543,156.012,292.627,155.224
	L292.627,155.224z M314.199,145.381l6.744,0.02l-1.059-4.337l-0.209,0.04c-0.483,0.095-0.959-0.228-1.053-0.713l0,0
	c-0.092-0.484,0.229-0.958,0.715-1.051l4.474-0.856l-0.514-1.01l-0.092,0.367l-0.789-1.232l0.061,0.333l-0.668-1.066l-0.029,0.333
	l-0.911-1.533l-0.062,0.468l-0.79-1.631l-0.091,0.332l-1.002-1.599l-1.154-1.698l-0.182,0.633l-0.486-2.065l-0.15,0.466l-0.76-2.298
	l-0.15,0.6l-0.487-2.298l-0.121,0.367l-0.547-1.566l-1.003,2.499l-0.182-0.568l-0.668,1.832l-0.184-0.631l-0.546,2.164l-0.244-0.434
	l-0.547,2.398l-0.243-0.432l-0.334,2.063l-0.271-0.664l-0.152,0.931l0.031,1.066l-0.396-0.034l0.64,0.866l-0.606-0.267l1.063,1.566
	l-0.577-0.266l1.032,1.398l-0.305,0.031l1.187,1.565l-0.426-0.032l1.487,1.997l-0.668-0.365l1.61,2.398h-0.334l0.364,0.765
	l-0.364,0.034l0.546,0.731l-0.517-0.266L314.199,145.381L314.199,145.381z M318.006,158.79c-0.248,0.767-0.382,1.583-0.382,2.432
	c0,4.368,3.541,7.909,7.909,7.909s7.907-3.541,7.907-7.909c0-4.367-3.539-7.909-7.907-7.909c-0.419,0-0.829,0.034-1.23,0.096
	l1.524,6.262c0.729,0.139,1.283,0.78,1.283,1.551c0,0.872-0.706,1.579-1.577,1.579c-0.872,0-1.578-0.708-1.578-1.579
	c0-0.476,0.211-0.905,0.546-1.192l-1.53-6.29c-0.837,0.287-1.608,0.71-2.295,1.243l0.011,0.008l0.518,1.333l-0.396,0.999
	l-0.668,0.466l-0.729,0.432l-1.154,0.466L318.006,158.79L318.006,158.79z M305.024,79.044l0.645,0.344l1.505-0.99l0.646-2.065
	l0.301-2.667l-0.731-0.772c0,0-1.161,0.127-1.462,0.042c-0.301-0.086-0.86,0.558-0.86,0.558l-0.215,1.979L305.024,79.044z"/>
<path fill="#FAC403" d="M36.574,492.678c3.595,2.238,8.757,3.938,14.289,3.938c8.204,0,12.998-4.208,12.998-10.295
	c0-5.55-3.319-8.862-11.708-11.905c-10.141-3.581-16.408-8.771-16.408-17.188c0-9.399,8.021-16.381,20.097-16.381
	c6.269,0,10.971,1.433,13.645,2.953l-2.212,6.357c-1.936-1.166-6.084-2.866-11.708-2.866c-8.48,0-11.708,4.923-11.708,9.042
	c0,5.641,3.779,8.415,12.353,11.638c10.506,3.938,15.761,8.861,15.761,17.725c0,9.31-7.006,17.456-21.661,17.456
	c-5.993,0-12.537-1.791-15.856-3.94L36.574,492.678z"/>
<path fill="#FAC403" d="M91.793,446.667c0,2.686-1.936,4.834-5.164,4.834c-2.95,0-4.885-2.149-4.885-4.834s2.028-4.923,5.07-4.923
	C89.764,441.744,91.793,443.892,91.793,446.667z M82.759,502.166v-43.327h8.113v43.327H82.759z"/>
<path fill="#FAC403" d="M136.132,500.645c-2.12,0.984-6.822,2.507-12.815,2.507c-13.458,0-22.212-8.863-22.212-22.111
	c0-13.338,9.402-23.097,23.965-23.097c4.794,0,9.034,1.166,11.247,2.328l-1.844,5.998c-1.938-0.983-4.979-2.057-9.403-2.057
	c-10.232,0-15.76,7.429-15.76,16.38c0,10.026,6.636,16.204,15.487,16.204c4.609,0,7.65-1.076,9.956-2.061L136.132,500.645z"/>
<path fill="#FAC403" d="M157.338,440.223c-2.121,7.518-6.085,17.187-8.574,21.304l-5.163,0.539
	c1.938-5.282,4.425-14.502,5.438-20.947L157.338,440.223z"/>
<path fill="#FAC403" d="M163.694,481.934c0.185,10.654,7.099,15.039,15.303,15.039c5.808,0,9.403-0.983,12.353-2.237l1.475,5.641
	c-2.856,1.253-7.835,2.775-14.934,2.775c-13.736,0-21.941-8.863-21.941-21.933s7.929-23.273,20.928-23.273
	c14.657,0,18.437,12.353,18.437,20.32c0,1.612-0.092,2.775-0.276,3.668H163.694L163.694,481.934z M187.479,476.298
	c0.092-4.923-2.12-12.711-11.247-12.711c-8.297,0-11.799,7.25-12.445,12.711H187.479z"/>
<path fill="#FAC403" d="M205.362,470.569c0-4.566-0.184-8.146-0.369-11.727h7.099l0.369,7.072h0.277
	c2.489-4.118,6.637-7.967,14.105-7.967c5.991,0,10.601,3.58,12.536,8.683h0.185c1.384-2.506,3.227-4.297,5.072-5.639
	c2.672-1.97,5.531-3.044,9.771-3.044c5.993,0,14.749,3.759,14.749,18.798v25.42h-7.926v-24.435c0-8.414-3.228-13.339-9.68-13.339
	c-4.702,0-8.206,3.313-9.681,7.072c-0.369,1.165-0.646,2.506-0.646,3.94v26.762h-7.928v-25.96c0-6.892-3.134-11.816-9.31-11.816
	c-4.978,0-8.758,3.94-10.048,7.878c-0.46,1.074-0.646,2.507-0.646,3.849v26.05h-7.929V470.569L205.362,470.569z"/>
<path fill="#FAC403" d="M302.067,442.729c4.885-0.806,10.693-1.343,17.054-1.343c11.522,0,19.727,2.687,25.166,7.52
	c5.623,4.923,8.85,11.907,8.85,21.664c0,9.846-3.227,17.904-8.941,23.45c-5.9,5.641-15.487,8.683-27.564,8.683
	c-5.808,0-10.509-0.269-14.564-0.716V442.729z M310.086,496.079c2.029,0.267,4.979,0.358,8.113,0.358
	c17.239,0,26.454-9.311,26.454-25.603c0.092-14.233-8.204-23.274-25.164-23.274c-4.149,0-7.283,0.358-9.403,0.804V496.079z"/>
<path fill="#FAC403" d="M368.068,481.934c0.184,10.654,7.098,15.039,15.303,15.039c5.808,0,9.404-0.983,12.354-2.237l1.475,5.641
	c-2.857,1.253-7.836,2.775-14.935,2.775c-13.735,0-21.939-8.863-21.939-21.933s7.927-23.273,20.927-23.273
	c14.656,0,18.437,12.353,18.437,20.32c0,1.612-0.093,2.775-0.277,3.668H368.068L368.068,481.934z M391.853,476.298
	c0.092-4.923-2.121-12.711-11.248-12.711c-8.295,0-11.8,7.25-12.444,12.711H391.853z"/>
<path fill="#FAC403" d="M409.736,438.611h8.112v63.555h-8.112V438.611z"/>
<path fill="#FAC403" d="M440.527,446.667c0,2.686-1.937,4.834-5.163,4.834c-2.95,0-4.887-2.149-4.887-4.834s2.028-4.923,5.071-4.923
	C438.499,441.744,440.527,443.892,440.527,446.667z M431.492,502.166v-43.327h8.112v43.327H431.492z"/>
<path fill="#FAC403" d="M456.194,458.839l8.759,24.26c1.475,4.028,2.674,7.609,3.595,11.189h0.277
	c1.013-3.58,2.305-7.161,3.778-11.189l8.666-24.26h8.481l-17.516,43.327h-7.743l-16.963-43.327H456.194z"/>
<path fill="#FAC403" d="M500.997,481.934c0.186,10.654,7.099,15.039,15.303,15.039c5.809,0,9.403-0.983,12.354-2.237l1.476,5.641
	c-2.859,1.253-7.836,2.775-14.935,2.775c-13.736,0-21.94-8.863-21.94-21.933s7.929-23.273,20.926-23.273
	c14.658,0,18.438,12.353,18.438,20.32c0,1.612-0.094,2.775-0.275,3.668H500.997L500.997,481.934z M524.782,476.298
	c0.092-4.923-2.122-12.711-11.247-12.711c-8.297,0-11.8,7.25-12.444,12.711H524.782z"/>
<path fill="#FAC403" d="M542.665,472.355c0-5.102-0.091-9.488-0.369-13.517h7.099l0.369,8.594h0.276
	c2.028-5.818,7.007-9.488,12.444-9.488c0.832,0,1.477,0.088,2.214,0.178v7.429c-0.83-0.179-1.659-0.179-2.766-0.179
	c-5.716,0-9.771,4.118-10.879,10.027c-0.184,1.074-0.275,2.416-0.275,3.668v23.097h-8.113V472.355L542.665,472.355z"/>
<path fill="#FAC403" d="M573.545,458.839l9.677,25.603c1.1,2.865,2.212,6.267,2.951,8.863h0.185c0.836-2.597,1.751-5.91,2.858-9.042
	l8.854-25.424h8.576l-12.18,30.884c-5.804,14.86-9.771,22.38-15.298,27.124c-4.058,3.313-7.929,4.655-9.958,5.014l-2.027-6.534
	c2.027-0.627,4.698-1.879,7.105-3.85c2.212-1.702,4.888-4.744,6.82-8.774c0.373-0.805,0.648-1.431,0.648-1.879
	c0-0.447-0.187-1.074-0.648-2.06l-16.411-39.921L573.545,458.839L573.545,458.839z"/>
</svg>
